<svg width="234" height="53" viewBox="0 0 234 53" fill="none" xmlns="http://www.w3.org/2000/svg">
<rect x="0.5" width="233" height="53" rx="8" fill="#D9D9D9"/>
<path d="M94.1122 23H91.9986C91.8736 22.392 91.6548 21.858 91.3423 21.3977C91.0355 20.9375 90.6605 20.5511 90.2173 20.2386C89.7798 19.9205 89.294 19.6818 88.7599 19.5227C88.2259 19.3636 87.669 19.2841 87.0895 19.2841C86.0327 19.2841 85.0753 19.5511 84.2173 20.0852C83.3651 20.6193 82.6861 21.4062 82.1804 22.446C81.6804 23.4858 81.4304 24.7614 81.4304 26.2727C81.4304 27.7841 81.6804 29.0597 82.1804 30.0994C82.6861 31.1392 83.3651 31.9261 84.2173 32.4602C85.0753 32.9943 86.0327 33.2614 87.0895 33.2614C87.669 33.2614 88.2259 33.1818 88.7599 33.0227C89.294 32.8636 89.7798 32.6278 90.2173 32.3153C90.6605 31.9972 91.0355 31.608 91.3423 31.1477C91.6548 30.6818 91.8736 30.1477 91.9986 29.5455H94.1122C93.9531 30.4375 93.6634 31.2358 93.2429 31.9403C92.8224 32.6449 92.2997 33.2443 91.6747 33.7386C91.0497 34.2273 90.348 34.5994 89.5696 34.8551C88.7969 35.1108 87.9702 35.2386 87.0895 35.2386C85.6009 35.2386 84.277 34.875 83.1179 34.1477C81.9588 33.4205 81.0469 32.3864 80.3821 31.0455C79.7173 29.7045 79.3849 28.1136 79.3849 26.2727C79.3849 24.4318 79.7173 22.8409 80.3821 21.5C81.0469 20.1591 81.9588 19.125 83.1179 18.3977C84.277 17.6705 85.6009 17.3068 87.0895 17.3068C87.9702 17.3068 88.7969 17.4347 89.5696 17.6903C90.348 17.946 91.0497 18.321 91.6747 18.8153C92.2997 19.304 92.8224 19.9006 93.2429 20.6051C93.6634 21.304 93.9531 22.1023 94.1122 23ZM101.107 35.3068C100.278 35.3068 99.5249 35.1506 98.8487 34.8381C98.1726 34.5199 97.6357 34.0625 97.2379 33.4659C96.8402 32.8636 96.6413 32.1364 96.6413 31.2841C96.6413 30.5341 96.7891 29.9261 97.0845 29.4602C97.38 28.9886 97.7749 28.6193 98.2692 28.3523C98.7635 28.0852 99.3089 27.8864 99.9055 27.7557C100.508 27.6193 101.113 27.5114 101.721 27.4318C102.516 27.3295 103.161 27.2528 103.656 27.2017C104.156 27.1449 104.519 27.0511 104.746 26.9205C104.979 26.7898 105.096 26.5625 105.096 26.2386V26.1705C105.096 25.3295 104.866 24.6761 104.406 24.2102C103.951 23.7443 103.261 23.5114 102.335 23.5114C101.374 23.5114 100.621 23.7216 100.076 24.142C99.5305 24.5625 99.147 25.0114 98.9254 25.4886L97.0163 24.8068C97.3572 24.0114 97.8118 23.392 98.38 22.9489C98.9538 22.5 99.5788 22.1875 100.255 22.0114C100.937 21.8295 101.607 21.7386 102.266 21.7386C102.687 21.7386 103.17 21.7898 103.715 21.892C104.266 21.9886 104.798 22.1903 105.309 22.4972C105.826 22.804 106.255 23.267 106.596 23.8864C106.937 24.5057 107.107 25.3352 107.107 26.375V35H105.096V33.2273H104.994C104.857 33.5114 104.63 33.8153 104.312 34.1392C103.994 34.4631 103.57 34.7386 103.042 34.9659C102.513 35.1932 101.869 35.3068 101.107 35.3068ZM101.414 33.5C102.21 33.5 102.88 33.3438 103.425 33.0312C103.977 32.7188 104.391 32.3153 104.67 31.821C104.954 31.3267 105.096 30.8068 105.096 30.2614V28.4205C105.011 28.5227 104.823 28.6165 104.533 28.7017C104.249 28.7812 103.92 28.8523 103.545 28.9148C103.175 28.9716 102.815 29.0227 102.462 29.0682C102.116 29.108 101.835 29.142 101.619 29.1705C101.096 29.2386 100.607 29.3494 100.153 29.5028C99.7038 29.6506 99.3402 29.875 99.0618 30.1761C98.7891 30.4716 98.6527 30.875 98.6527 31.3864C98.6527 32.0852 98.9112 32.6136 99.4283 32.9716C99.951 33.3239 100.613 33.5 101.414 33.5ZM112.79 27.125V35H110.778V21.9091H112.722V23.9545H112.892C113.199 23.2898 113.665 22.7557 114.29 22.3523C114.915 21.9432 115.722 21.7386 116.71 21.7386C117.597 21.7386 118.372 21.9205 119.037 22.2841C119.702 22.642 120.219 23.1875 120.588 23.9205C120.957 24.6477 121.142 25.5682 121.142 26.6818V35H119.131V26.8182C119.131 25.7898 118.864 24.9886 118.33 24.4148C117.795 23.8352 117.063 23.5455 116.131 23.5455C115.489 23.5455 114.915 23.6847 114.409 23.9631C113.909 24.2415 113.514 24.6477 113.224 25.1818C112.935 25.7159 112.79 26.3636 112.79 27.125ZM130.136 35.2727C128.908 35.2727 127.852 34.983 126.965 34.4034C126.079 33.8239 125.397 33.0256 124.92 32.0085C124.442 30.9915 124.204 29.8295 124.204 28.5227C124.204 27.1932 124.448 26.0199 124.937 25.0028C125.431 23.9801 126.119 23.1818 126.999 22.608C127.886 22.0284 128.92 21.7386 130.102 21.7386C131.022 21.7386 131.852 21.9091 132.59 22.25C133.329 22.5909 133.934 23.0682 134.406 23.6818C134.877 24.2955 135.17 25.0114 135.283 25.8295H133.272C133.119 25.233 132.778 24.7045 132.249 24.2443C131.727 23.7784 131.022 23.5455 130.136 23.5455C129.352 23.5455 128.664 23.75 128.073 24.1591C127.488 24.5625 127.031 25.1335 126.701 25.8722C126.377 26.6051 126.215 27.4659 126.215 28.4545C126.215 29.4659 126.374 30.3466 126.692 31.0966C127.016 31.8466 127.471 32.429 128.056 32.8438C128.647 33.2585 129.34 33.4659 130.136 33.4659C130.658 33.4659 131.133 33.375 131.559 33.1932C131.985 33.0114 132.346 32.75 132.641 32.4091C132.937 32.0682 133.147 31.6591 133.272 31.1818H135.283C135.17 31.9545 134.888 32.6506 134.44 33.2699C133.996 33.8835 133.408 34.3722 132.675 34.7358C131.948 35.0938 131.102 35.2727 130.136 35.2727ZM143.712 35.2727C142.451 35.2727 141.363 34.9943 140.448 34.4375C139.539 33.875 138.837 33.0909 138.343 32.0852C137.854 31.0739 137.61 29.8977 137.61 28.5568C137.61 27.2159 137.854 26.0341 138.343 25.0114C138.837 23.983 139.525 23.1818 140.406 22.608C141.292 22.0284 142.326 21.7386 143.508 21.7386C144.19 21.7386 144.863 21.8523 145.528 22.0795C146.192 22.3068 146.798 22.6761 147.343 23.1875C147.888 23.6932 148.323 24.3636 148.647 25.1989C148.971 26.0341 149.133 27.0625 149.133 28.2841V29.1364H139.042V27.3977H147.087C147.087 26.6591 146.94 26 146.644 25.4205C146.354 24.8409 145.94 24.3835 145.4 24.0483C144.866 23.7131 144.235 23.5455 143.508 23.5455C142.707 23.5455 142.013 23.7443 141.428 24.142C140.849 24.5341 140.403 25.0455 140.09 25.6761C139.778 26.3068 139.621 26.983 139.621 27.7045V28.8636C139.621 29.8523 139.792 30.6903 140.133 31.3778C140.479 32.0597 140.96 32.5795 141.573 32.9375C142.187 33.2898 142.9 33.4659 143.712 33.4659C144.241 33.4659 144.718 33.392 145.144 33.2443C145.576 33.0909 145.948 32.8636 146.261 32.5625C146.573 32.2557 146.815 31.875 146.985 31.4205L148.928 31.9659C148.724 32.625 148.38 33.2045 147.897 33.7045C147.414 34.1989 146.817 34.5852 146.107 34.8636C145.397 35.1364 144.599 35.2727 143.712 35.2727ZM154.204 17.5455V35H152.192V17.5455H154.204Z" fill="black"/>
</svg>
