<svg width="158" height="53" viewBox="0 0 158 53" fill="none" xmlns="http://www.w3.org/2000/svg">
<rect x="0.5" width="157" height="53" rx="8" fill="#D9D9D9"/>
<path d="M28.6669 23H26.5533C26.4283 22.392 26.2095 21.858 25.897 21.3977C25.5902 20.9375 25.2152 20.5511 24.772 20.2386C24.3345 19.9205 23.8487 19.6818 23.3146 19.5227C22.7805 19.3636 22.2237 19.2841 21.6442 19.2841C20.5874 19.2841 19.63 19.5511 18.772 20.0852C17.9197 20.6193 17.2408 21.4062 16.7351 22.446C16.2351 23.4858 15.9851 24.7614 15.9851 26.2727C15.9851 27.7841 16.2351 29.0597 16.7351 30.0994C17.2408 31.1392 17.9197 31.9261 18.772 32.4602C19.63 32.9943 20.5874 33.2614 21.6442 33.2614C22.2237 33.2614 22.7805 33.1818 23.3146 33.0227C23.8487 32.8636 24.3345 32.6278 24.772 32.3153C25.2152 31.9972 25.5902 31.608 25.897 31.1477C26.2095 30.6818 26.4283 30.1477 26.5533 29.5455H28.6669C28.5078 30.4375 28.218 31.2358 27.7976 31.9403C27.3771 32.6449 26.8544 33.2443 26.2294 33.7386C25.6044 34.2273 24.9027 34.5994 24.1243 34.8551C23.3516 35.1108 22.5249 35.2386 21.6442 35.2386C20.1555 35.2386 18.8317 34.875 17.6726 34.1477C16.5135 33.4205 15.6016 32.3864 14.9368 31.0455C14.272 29.7045 13.9396 28.1136 13.9396 26.2727C13.9396 24.4318 14.272 22.8409 14.9368 21.5C15.6016 20.1591 16.5135 19.125 17.6726 18.3977C18.8317 17.6705 20.1555 17.3068 21.6442 17.3068C22.5249 17.3068 23.3516 17.4347 24.1243 17.6903C24.9027 17.946 25.6044 18.321 26.2294 18.8153C26.8544 19.304 27.3771 19.9006 27.7976 20.6051C28.218 21.304 28.5078 22.1023 28.6669 23ZM33.821 27.125V35H31.8097V17.5455H33.821V23.9545H33.9915C34.2983 23.2784 34.7585 22.7415 35.3722 22.3438C35.9915 21.9403 36.8153 21.7386 37.8438 21.7386C38.7358 21.7386 39.517 21.9176 40.1875 22.2756C40.858 22.6278 41.3778 23.1705 41.7472 23.9034C42.1222 24.6307 42.3097 25.5568 42.3097 26.6818V35H40.2983V26.8182C40.2983 25.7784 40.0284 24.9744 39.4886 24.4062C38.9545 23.8324 38.2131 23.5455 37.2642 23.5455C36.6051 23.5455 36.0142 23.6847 35.4915 23.9631C34.9744 24.2415 34.5653 24.6477 34.2642 25.1818C33.9688 25.7159 33.821 26.3636 33.821 27.125ZM51.3075 35.2727C50.1257 35.2727 49.0888 34.9915 48.1967 34.429C47.3104 33.8665 46.6172 33.0795 46.1172 32.0682C45.6229 31.0568 45.3757 29.875 45.3757 28.5227C45.3757 27.1591 45.6229 25.9687 46.1172 24.9517C46.6172 23.9347 47.3104 23.1449 48.1967 22.5824C49.0888 22.0199 50.1257 21.7386 51.3075 21.7386C52.4893 21.7386 53.5234 22.0199 54.4098 22.5824C55.3018 23.1449 55.995 23.9347 56.4893 24.9517C56.9893 25.9687 57.2393 27.1591 57.2393 28.5227C57.2393 29.875 56.9893 31.0568 56.4893 32.0682C55.995 33.0795 55.3018 33.8665 54.4098 34.429C53.5234 34.9915 52.4893 35.2727 51.3075 35.2727ZM51.3075 33.4659C52.2053 33.4659 52.9439 33.2358 53.5234 32.7756C54.103 32.3153 54.532 31.7102 54.8104 30.9602C55.0888 30.2102 55.228 29.3977 55.228 28.5227C55.228 27.6477 55.0888 26.8324 54.8104 26.0767C54.532 25.321 54.103 24.7102 53.5234 24.2443C52.9439 23.7784 52.2053 23.5455 51.3075 23.5455C50.4098 23.5455 49.6712 23.7784 49.0916 24.2443C48.5121 24.7102 48.0831 25.321 47.8047 26.0767C47.5263 26.8324 47.3871 27.6477 47.3871 28.5227C47.3871 29.3977 47.5263 30.2102 47.8047 30.9602C48.0831 31.7102 48.5121 32.3153 49.0916 32.7756C49.6712 33.2358 50.4098 33.4659 51.3075 33.4659ZM65.6278 35.2727C64.446 35.2727 63.4091 34.9915 62.517 34.429C61.6307 33.8665 60.9375 33.0795 60.4375 32.0682C59.9432 31.0568 59.696 29.875 59.696 28.5227C59.696 27.1591 59.9432 25.9687 60.4375 24.9517C60.9375 23.9347 61.6307 23.1449 62.517 22.5824C63.4091 22.0199 64.446 21.7386 65.6278 21.7386C66.8097 21.7386 67.8438 22.0199 68.7301 22.5824C69.6222 23.1449 70.3153 23.9347 70.8097 24.9517C71.3097 25.9687 71.5597 27.1591 71.5597 28.5227C71.5597 29.875 71.3097 31.0568 70.8097 32.0682C70.3153 33.0795 69.6222 33.8665 68.7301 34.429C67.8438 34.9915 66.8097 35.2727 65.6278 35.2727ZM65.6278 33.4659C66.5256 33.4659 67.2642 33.2358 67.8438 32.7756C68.4233 32.3153 68.8523 31.7102 69.1307 30.9602C69.4091 30.2102 69.5483 29.3977 69.5483 28.5227C69.5483 27.6477 69.4091 26.8324 69.1307 26.0767C68.8523 25.321 68.4233 24.7102 67.8438 24.2443C67.2642 23.7784 66.5256 23.5455 65.6278 23.5455C64.7301 23.5455 63.9915 23.7784 63.4119 24.2443C62.8324 24.7102 62.4034 25.321 62.125 26.0767C61.8466 26.8324 61.7074 27.6477 61.7074 28.5227C61.7074 29.3977 61.8466 30.2102 62.125 30.9602C62.4034 31.7102 62.8324 32.3153 63.4119 32.7756C63.9915 33.2358 64.7301 33.4659 65.6278 33.4659ZM83.9027 24.8409L82.0959 25.3523C81.9822 25.0511 81.8146 24.7585 81.593 24.4744C81.3771 24.1847 81.0817 23.946 80.7067 23.7585C80.3317 23.571 79.8516 23.4773 79.2663 23.4773C78.4652 23.4773 77.7976 23.6619 77.2635 24.0312C76.7351 24.3949 76.4709 24.858 76.4709 25.4205C76.4709 25.9205 76.6527 26.3153 77.0163 26.6051C77.38 26.8949 77.9482 27.1364 78.7209 27.3295L80.6641 27.8068C81.8345 28.0909 82.7067 28.5256 83.2805 29.1108C83.8544 29.6903 84.1413 30.4375 84.1413 31.3523C84.1413 32.1023 83.9254 32.7727 83.4936 33.3636C83.0675 33.9545 82.4709 34.4205 81.7038 34.7614C80.9368 35.1023 80.0447 35.2727 79.0277 35.2727C77.6925 35.2727 76.5874 34.983 75.7124 34.4034C74.8374 33.8239 74.2834 32.9773 74.0504 31.8636L75.9595 31.3864C76.1413 32.0909 76.4851 32.6193 76.9908 32.9716C77.5021 33.3239 78.1697 33.5 78.9936 33.5C79.9311 33.5 80.6754 33.3011 81.2266 32.9034C81.7834 32.5 82.0618 32.017 82.0618 31.4545C82.0618 31 81.9027 30.6193 81.5845 30.3125C81.2663 30 80.7777 29.767 80.1186 29.6136L77.9368 29.1023C76.7379 28.8182 75.8572 28.3778 75.2947 27.7812C74.7379 27.179 74.4595 26.4261 74.4595 25.5227C74.4595 24.7841 74.6669 24.1307 75.0817 23.5625C75.5021 22.9943 76.0732 22.5483 76.7947 22.2244C77.522 21.9006 78.3459 21.7386 79.2663 21.7386C80.5618 21.7386 81.5788 22.0227 82.3175 22.5909C83.0618 23.1591 83.5902 23.9091 83.9027 24.8409ZM92.6577 35.2727C91.3963 35.2727 90.3082 34.9943 89.3935 34.4375C88.4844 33.875 87.7827 33.0909 87.2884 32.0852C86.7997 31.0739 86.5554 29.8977 86.5554 28.5568C86.5554 27.2159 86.7997 26.0341 87.2884 25.0114C87.7827 23.983 88.4702 23.1818 89.3509 22.608C90.2372 22.0284 91.2713 21.7386 92.4531 21.7386C93.1349 21.7386 93.8082 21.8523 94.473 22.0795C95.1378 22.3068 95.7429 22.6761 96.2884 23.1875C96.8338 23.6932 97.2685 24.3636 97.5923 25.1989C97.9162 26.0341 98.0781 27.0625 98.0781 28.2841V29.1364H87.9872V27.3977H96.0327C96.0327 26.6591 95.8849 26 95.5895 25.4205C95.2997 24.8409 94.8849 24.3835 94.3452 24.0483C93.8111 23.7131 93.1804 23.5455 92.4531 23.5455C91.652 23.5455 90.9588 23.7443 90.3736 24.142C89.794 24.5341 89.348 25.0455 89.0355 25.6761C88.723 26.3068 88.5668 26.983 88.5668 27.7045V28.8636C88.5668 29.8523 88.7372 30.6903 89.0781 31.3778C89.4247 32.0597 89.9048 32.5795 90.5185 32.9375C91.1321 33.2898 91.8452 33.4659 92.6577 33.4659C93.1861 33.4659 93.6634 33.392 94.0895 33.2443C94.5213 33.0909 94.8935 32.8636 95.206 32.5625C95.5185 32.2557 95.7599 31.875 95.9304 31.4205L97.8736 31.9659C97.669 32.625 97.3253 33.2045 96.8423 33.7045C96.3594 34.1989 95.7628 34.5852 95.0526 34.8636C94.3423 35.1364 93.544 35.2727 92.6577 35.2727ZM108.161 35V17.5455H118.626V19.4205H110.274V25.3182H117.842V27.1932H110.274V35H108.161ZM121.974 35V21.9091H123.985V35H121.974ZM122.996 19.7273C122.604 19.7273 122.266 19.5938 121.982 19.3267C121.704 19.0597 121.565 18.7386 121.565 18.3636C121.565 17.9886 121.704 17.6676 121.982 17.4006C122.266 17.1335 122.604 17 122.996 17C123.388 17 123.724 17.1335 124.002 17.4006C124.286 17.6676 124.428 17.9886 124.428 18.3636C124.428 18.7386 124.286 19.0597 124.002 19.3267C123.724 19.5938 123.388 19.7273 122.996 19.7273ZM129.68 17.5455V35H127.669V17.5455H129.68ZM138.853 35.2727C137.592 35.2727 136.504 34.9943 135.589 34.4375C134.68 33.875 133.978 33.0909 133.484 32.0852C132.995 31.0739 132.751 29.8977 132.751 28.5568C132.751 27.2159 132.995 26.0341 133.484 25.0114C133.978 23.983 134.665 23.1818 135.546 22.608C136.433 22.0284 137.467 21.7386 138.648 21.7386C139.33 21.7386 140.004 21.8523 140.668 22.0795C141.333 22.3068 141.938 22.6761 142.484 23.1875C143.029 23.6932 143.464 24.3636 143.788 25.1989C144.112 26.0341 144.273 27.0625 144.273 28.2841V29.1364H134.183V27.3977H142.228C142.228 26.6591 142.08 26 141.785 25.4205C141.495 24.8409 141.08 24.3835 140.54 24.0483C140.006 23.7131 139.376 23.5455 138.648 23.5455C137.847 23.5455 137.154 23.7443 136.569 24.142C135.989 24.5341 135.543 25.0455 135.231 25.6761C134.918 26.3068 134.762 26.983 134.762 27.7045V28.8636C134.762 29.8523 134.933 30.6903 135.273 31.3778C135.62 32.0597 136.1 32.5795 136.714 32.9375C137.327 33.2898 138.04 33.4659 138.853 33.4659C139.381 33.4659 139.859 33.392 140.285 33.2443C140.717 33.0909 141.089 32.8636 141.401 32.5625C141.714 32.2557 141.955 31.875 142.126 31.4205L144.069 31.9659C143.864 32.625 143.521 33.2045 143.038 33.7045C142.555 34.1989 141.958 34.5852 141.248 34.8636C140.538 35.1364 139.739 35.2727 138.853 35.2727Z" fill="black"/>
</svg>
