<svg width="234" height="53" viewBox="0 0 234 53" fill="none" xmlns="http://www.w3.org/2000/svg">
<rect x="0.5" width="233" height="53" rx="8" fill="#83B941"/>
<path d="M29.5643 23.4347H26.3768C26.2859 22.9119 26.1183 22.4489 25.8739 22.0455C25.6296 21.6364 25.3256 21.2898 24.962 21.0057C24.5984 20.7216 24.1836 20.5085 23.7177 20.3665C23.2575 20.2188 22.7603 20.1449 22.2262 20.1449C21.2773 20.1449 20.4364 20.3835 19.7035 20.8608C18.9705 21.3324 18.3967 22.0256 17.9819 22.9403C17.5671 23.8494 17.3597 24.9602 17.3597 26.2727C17.3597 27.608 17.5671 28.733 17.9819 29.6477C18.4023 30.5568 18.9762 31.2443 19.7035 31.7102C20.4364 32.1705 21.2745 32.4006 22.2177 32.4006C22.7404 32.4006 23.229 32.3324 23.6836 32.196C24.1438 32.054 24.5558 31.8466 24.9194 31.5739C25.2887 31.3011 25.5984 30.9659 25.8484 30.5682C26.104 30.1705 26.2802 29.7159 26.3768 29.2045L29.5643 29.2216C29.445 30.0511 29.1864 30.8295 28.7887 31.5568C28.3967 32.2841 27.8825 32.9261 27.2461 33.483C26.6097 34.0341 25.8654 34.4659 25.0131 34.7784C24.1609 35.0852 23.2148 35.2386 22.1751 35.2386C20.641 35.2386 19.2717 34.8835 18.0671 34.1733C16.8626 33.4631 15.9137 32.4375 15.2205 31.0966C14.5273 29.7557 14.1808 28.1477 14.1808 26.2727C14.1808 24.392 14.5302 22.7841 15.229 21.4489C15.9279 20.108 16.8796 19.0824 18.0842 18.3722C19.2887 17.6619 20.6523 17.3068 22.1751 17.3068C23.1467 17.3068 24.0501 17.4432 24.8853 17.7159C25.7205 17.9886 26.4648 18.3892 27.1183 18.9176C27.7717 19.4403 28.3086 20.0824 28.729 20.8438C29.1552 21.5994 29.4336 22.4631 29.5643 23.4347ZM32.3235 35V21.9091H35.315V24.0909H35.4513C35.69 23.3352 36.0991 22.7528 36.6786 22.3438C37.2638 21.929 37.9315 21.7216 38.6815 21.7216C38.8519 21.7216 39.0423 21.7301 39.2525 21.7472C39.4684 21.7585 39.6474 21.7784 39.7894 21.8068V24.6449C39.6587 24.5994 39.4513 24.5597 39.1673 24.5256C38.8888 24.4858 38.619 24.4659 38.3576 24.4659C37.7951 24.4659 37.2894 24.5881 36.8406 24.8324C36.3974 25.071 36.0479 25.4034 35.7923 25.8295C35.5366 26.2557 35.4087 26.7472 35.4087 27.304V35H32.3235ZM47.0955 35.2557C45.783 35.2557 44.6495 34.983 43.695 34.4375C42.7461 33.8864 42.016 33.108 41.5046 32.1023C40.9933 31.0909 40.7376 29.9006 40.7376 28.5312C40.7376 27.1847 40.9933 26.0028 41.5046 24.9858C42.0217 23.9631 42.7433 23.1676 43.6694 22.5994C44.5955 22.0256 45.6836 21.7386 46.9336 21.7386C47.7404 21.7386 48.5018 21.8693 49.2177 22.1307C49.9393 22.3864 50.5756 22.7841 51.1268 23.3239C51.6836 23.8636 52.1211 24.5511 52.4393 25.3864C52.7575 26.2159 52.9165 27.2045 52.9165 28.3523V29.2983H42.1864V27.2188H49.9592C49.9535 26.6278 49.8256 26.1023 49.5756 25.642C49.3256 25.1761 48.9762 24.8097 48.5273 24.5426C48.0842 24.2756 47.5671 24.142 46.9762 24.142C46.3455 24.142 45.7915 24.2955 45.3143 24.6023C44.837 24.9034 44.4648 25.3011 44.1978 25.7955C43.9364 26.2841 43.8029 26.821 43.7972 27.4062V29.2216C43.7972 29.983 43.9364 30.6364 44.2148 31.1818C44.4933 31.7216 44.8825 32.1364 45.3825 32.4261C45.8825 32.7102 46.4677 32.8523 47.1381 32.8523C47.587 32.8523 47.9933 32.7898 48.3569 32.6648C48.7205 32.5341 49.0359 32.3438 49.3029 32.0938C49.57 31.8438 49.7717 31.5341 49.908 31.1648L52.7887 31.4886C52.6069 32.25 52.2603 32.9148 51.7489 33.483C51.2433 34.0455 50.5955 34.483 49.8058 34.7955C49.016 35.1023 48.1126 35.2557 47.0955 35.2557ZM59.2937 35.2642C58.4641 35.2642 57.717 35.1165 57.0522 34.821C56.3931 34.5199 55.8704 34.0767 55.484 33.4915C55.1033 32.9062 54.913 32.1847 54.913 31.3267C54.913 30.5881 55.0494 29.9773 55.3221 29.4943C55.5948 29.0114 55.967 28.625 56.4386 28.3352C56.9102 28.0455 57.4414 27.8267 58.0323 27.679C58.6289 27.5256 59.2454 27.4148 59.8817 27.3466C60.6488 27.267 61.271 27.196 61.7482 27.1335C62.2255 27.0653 62.5721 26.9631 62.788 26.8267C63.0096 26.6847 63.1204 26.4659 63.1204 26.1705V26.1193C63.1204 25.4773 62.93 24.9801 62.5494 24.6278C62.1687 24.2756 61.6204 24.0994 60.9045 24.0994C60.1488 24.0994 59.5494 24.2642 59.1062 24.5938C58.6687 24.9233 58.3732 25.3125 58.2198 25.7614L55.3391 25.3523C55.5664 24.5568 55.9414 23.892 56.4641 23.358C56.9869 22.8182 57.6261 22.4148 58.3817 22.1477C59.1374 21.875 59.9727 21.7386 60.8874 21.7386C61.5181 21.7386 62.146 21.8125 62.771 21.9602C63.396 22.108 63.967 22.3523 64.484 22.6932C65.0011 23.0284 65.4158 23.4858 65.7283 24.0653C66.0465 24.6449 66.2056 25.3693 66.2056 26.2386V35H63.2397V33.2017H63.1374C62.9499 33.5653 62.6857 33.9062 62.3448 34.2244C62.0096 34.5369 61.5863 34.7898 61.0749 34.983C60.5692 35.1705 59.9755 35.2642 59.2937 35.2642ZM60.0948 32.9972C60.7141 32.9972 61.2511 32.875 61.7056 32.6307C62.1602 32.3807 62.5096 32.0511 62.7539 31.642C63.0039 31.233 63.1289 30.7869 63.1289 30.304V28.7614C63.0323 28.8409 62.8675 28.9148 62.6346 28.983C62.4073 29.0511 62.1516 29.1108 61.8675 29.1619C61.5835 29.2131 61.3022 29.2585 61.0238 29.2983C60.7454 29.3381 60.5039 29.3722 60.2994 29.4006C59.8391 29.4631 59.4272 29.5653 59.0636 29.7074C58.6999 29.8494 58.413 30.0483 58.2028 30.304C57.9925 30.554 57.8874 30.8778 57.8874 31.2756C57.8874 31.8438 58.0948 32.2727 58.5096 32.5625C58.9244 32.8523 59.4528 32.9972 60.0948 32.9972ZM75.8448 21.9091V24.2955H68.3192V21.9091H75.8448ZM70.1772 18.7727H73.2624V31.0625C73.2624 31.4773 73.3249 31.7955 73.4499 32.017C73.5806 32.233 73.7511 32.3807 73.9613 32.4602C74.1715 32.5398 74.4045 32.5795 74.6602 32.5795C74.8533 32.5795 75.0295 32.5653 75.1886 32.5369C75.3533 32.5085 75.4783 32.483 75.5636 32.4602L76.0835 34.8722C75.9187 34.929 75.6829 34.9915 75.3761 35.0597C75.0749 35.1278 74.7056 35.1676 74.2681 35.179C73.4954 35.2017 72.7994 35.0852 72.18 34.8295C71.5607 34.5682 71.0692 34.1648 70.7056 33.6193C70.3477 33.0739 70.1715 32.392 70.1772 31.5739V18.7727ZM84.0799 35.2557C82.7674 35.2557 81.6339 34.983 80.6793 34.4375C79.7305 33.8864 79.0004 33.108 78.489 32.1023C77.9776 31.0909 77.7219 29.9006 77.7219 28.5312C77.7219 27.1847 77.9776 26.0028 78.489 24.9858C79.006 23.9631 79.7276 23.1676 80.6538 22.5994C81.5799 22.0256 82.668 21.7386 83.918 21.7386C84.7248 21.7386 85.4862 21.8693 86.2021 22.1307C86.9237 22.3864 87.56 22.7841 88.1112 23.3239C88.668 23.8636 89.1055 24.5511 89.4237 25.3864C89.7418 26.2159 89.9009 27.2045 89.9009 28.3523V29.2983H79.1708V27.2188H86.9435C86.9379 26.6278 86.81 26.1023 86.56 25.642C86.31 25.1761 85.9606 24.8097 85.5117 24.5426C85.0685 24.2756 84.5515 24.142 83.9606 24.142C83.3299 24.142 82.7759 24.2955 82.2987 24.6023C81.8214 24.9034 81.4492 25.3011 81.1822 25.7955C80.9208 26.2841 80.7873 26.821 80.7816 27.4062V29.2216C80.7816 29.983 80.9208 30.6364 81.1992 31.1818C81.4776 31.7216 81.8668 32.1364 82.3668 32.4261C82.8668 32.7102 83.4521 32.8523 84.1225 32.8523C84.5714 32.8523 84.9776 32.7898 85.3413 32.6648C85.7049 32.5341 86.0202 32.3438 86.2873 32.0938C86.5543 31.8438 86.756 31.5341 86.8924 31.1648L89.7731 31.4886C89.5913 32.25 89.2447 32.9148 88.7333 33.483C88.2276 34.0455 87.5799 34.483 86.7901 34.7955C86.0004 35.1023 85.0969 35.2557 84.0799 35.2557ZM112.944 17.5455V35H110.132L101.907 23.1108H101.762V35H98.6005V17.5455H101.43L109.646 29.4432H109.799V17.5455H112.944ZM116.39 35V17.5455H127.571V20.196H119.551V24.9347H126.804V27.5852H119.551V35H116.39ZM129.685 20.196V17.5455H143.611V20.196H138.216V35H135.08V20.196H129.685ZM162.459 25.3693L159.647 25.6761C159.567 25.392 159.428 25.125 159.229 24.875C159.036 24.625 158.775 24.4233 158.445 24.2699C158.115 24.1165 157.712 24.0398 157.235 24.0398C156.593 24.0398 156.053 24.179 155.615 24.4574C155.184 24.7358 154.971 25.0966 154.976 25.5398C154.971 25.9205 155.11 26.2301 155.394 26.4688C155.684 26.7074 156.161 26.9034 156.826 27.0568L159.059 27.5341C160.297 27.8011 161.218 28.2244 161.82 28.804C162.428 29.3835 162.735 30.142 162.74 31.0795C162.735 31.9034 162.493 32.6307 162.016 33.2614C161.544 33.8864 160.888 34.375 160.047 34.7273C159.206 35.0795 158.24 35.2557 157.15 35.2557C155.547 35.2557 154.257 34.9205 153.28 34.25C152.303 33.5739 151.721 32.6335 151.533 31.429L154.542 31.1392C154.678 31.7301 154.968 32.1761 155.411 32.4773C155.854 32.7784 156.431 32.929 157.141 32.929C157.874 32.929 158.462 32.7784 158.905 32.4773C159.354 32.1761 159.578 31.804 159.578 31.3608C159.578 30.9858 159.434 30.6761 159.144 30.4318C158.86 30.1875 158.417 30 157.814 29.8693L155.581 29.4006C154.326 29.1392 153.397 28.6989 152.794 28.0795C152.192 27.4545 151.894 26.6648 151.9 25.7102C151.894 24.9034 152.113 24.2045 152.556 23.6136C153.005 23.017 153.627 22.5568 154.422 22.233C155.223 21.9034 156.147 21.7386 157.192 21.7386C158.726 21.7386 159.934 22.0653 160.814 22.7188C161.701 23.3722 162.249 24.2557 162.459 25.3693ZM171.08 35.2557C169.767 35.2557 168.634 34.983 167.679 34.4375C166.73 33.8864 166 33.108 165.489 32.1023C164.978 31.0909 164.722 29.9006 164.722 28.5312C164.722 27.1847 164.978 26.0028 165.489 24.9858C166.006 23.9631 166.728 23.1676 167.654 22.5994C168.58 22.0256 169.668 21.7386 170.918 21.7386C171.725 21.7386 172.486 21.8693 173.202 22.1307C173.924 22.3864 174.56 22.7841 175.111 23.3239C175.668 23.8636 176.105 24.5511 176.424 25.3864C176.742 26.2159 176.901 27.2045 176.901 28.3523V29.2983H166.171V27.2188H173.944C173.938 26.6278 173.81 26.1023 173.56 25.642C173.31 25.1761 172.961 24.8097 172.512 24.5426C172.069 24.2756 171.551 24.142 170.961 24.142C170.33 24.142 169.776 24.2955 169.299 24.6023C168.821 24.9034 168.449 25.3011 168.182 25.7955C167.921 26.2841 167.787 26.821 167.782 27.4062V29.2216C167.782 29.983 167.921 30.6364 168.199 31.1818C168.478 31.7216 168.867 32.1364 169.367 32.4261C169.867 32.7102 170.452 32.8523 171.123 32.8523C171.571 32.8523 171.978 32.7898 172.341 32.6648C172.705 32.5341 173.02 32.3438 173.287 32.0938C173.554 31.8438 173.756 31.5341 173.892 31.1648L176.773 31.4886C176.591 32.25 176.245 32.9148 175.733 33.483C175.228 34.0455 174.58 34.483 173.79 34.7955C173 35.1023 172.097 35.2557 171.08 35.2557ZM179.511 35V21.9091H182.502V24.0909H182.639C182.877 23.3352 183.287 22.7528 183.866 22.3438C184.451 21.929 185.119 21.7216 185.869 21.7216C186.039 21.7216 186.23 21.7301 186.44 21.7472C186.656 21.7585 186.835 21.7784 186.977 21.8068V24.6449C186.846 24.5994 186.639 24.5597 186.355 24.5256C186.076 24.4858 185.806 24.4659 185.545 24.4659C184.983 24.4659 184.477 24.5881 184.028 24.8324C183.585 25.071 183.235 25.4034 182.98 25.8295C182.724 26.2557 182.596 26.7472 182.596 27.304V35H179.511ZM189.027 35V21.9091H192.112V35H189.027ZM190.578 20.0511C190.089 20.0511 189.669 19.8892 189.316 19.5653C188.964 19.2358 188.788 18.8409 188.788 18.3807C188.788 17.9148 188.964 17.5199 189.316 17.196C189.669 16.8665 190.089 16.7017 190.578 16.7017C191.072 16.7017 191.493 16.8665 191.839 17.196C192.191 17.5199 192.368 17.9148 192.368 18.3807C192.368 18.8409 192.191 19.2358 191.839 19.5653C191.493 19.8892 191.072 20.0511 190.578 20.0511ZM201.08 35.2557C199.767 35.2557 198.634 34.983 197.679 34.4375C196.73 33.8864 196 33.108 195.489 32.1023C194.978 31.0909 194.722 29.9006 194.722 28.5312C194.722 27.1847 194.978 26.0028 195.489 24.9858C196.006 23.9631 196.728 23.1676 197.654 22.5994C198.58 22.0256 199.668 21.7386 200.918 21.7386C201.725 21.7386 202.486 21.8693 203.202 22.1307C203.924 22.3864 204.56 22.7841 205.111 23.3239C205.668 23.8636 206.105 24.5511 206.424 25.3864C206.742 26.2159 206.901 27.2045 206.901 28.3523V29.2983H196.171V27.2188H203.944C203.938 26.6278 203.81 26.1023 203.56 25.642C203.31 25.1761 202.961 24.8097 202.512 24.5426C202.069 24.2756 201.551 24.142 200.961 24.142C200.33 24.142 199.776 24.2955 199.299 24.6023C198.821 24.9034 198.449 25.3011 198.182 25.7955C197.921 26.2841 197.787 26.821 197.782 27.4062V29.2216C197.782 29.983 197.921 30.6364 198.199 31.1818C198.478 31.7216 198.867 32.1364 199.367 32.4261C199.867 32.7102 200.452 32.8523 201.123 32.8523C201.571 32.8523 201.978 32.7898 202.341 32.6648C202.705 32.5341 203.02 32.3438 203.287 32.0938C203.554 31.8438 203.756 31.5341 203.892 31.1648L206.773 31.4886C206.591 32.25 206.245 32.9148 205.733 33.483C205.228 34.0455 204.58 34.483 203.79 34.7955C203 35.1023 202.097 35.2557 201.08 35.2557ZM219.858 25.3693L217.045 25.6761C216.966 25.392 216.826 25.125 216.627 24.875C216.434 24.625 216.173 24.4233 215.843 24.2699C215.514 24.1165 215.11 24.0398 214.633 24.0398C213.991 24.0398 213.451 24.179 213.014 24.4574C212.582 24.7358 212.369 25.0966 212.375 25.5398C212.369 25.9205 212.508 26.2301 212.792 26.4688C213.082 26.7074 213.559 26.9034 214.224 27.0568L216.457 27.5341C217.696 27.8011 218.616 28.2244 219.218 28.804C219.826 29.3835 220.133 30.142 220.139 31.0795C220.133 31.9034 219.892 32.6307 219.414 33.2614C218.943 33.8864 218.287 34.375 217.446 34.7273C216.605 35.0795 215.639 35.2557 214.548 35.2557C212.946 35.2557 211.656 34.9205 210.679 34.25C209.701 33.5739 209.119 32.6335 208.931 31.429L211.94 31.1392C212.076 31.7301 212.366 32.1761 212.809 32.4773C213.252 32.7784 213.829 32.929 214.539 32.929C215.272 32.929 215.86 32.7784 216.304 32.4773C216.752 32.1761 216.977 31.804 216.977 31.3608C216.977 30.9858 216.832 30.6761 216.542 30.4318C216.258 30.1875 215.815 30 215.213 29.8693L212.98 29.4006C211.724 29.1392 210.795 28.6989 210.193 28.0795C209.591 27.4545 209.292 26.6648 209.298 25.7102C209.292 24.9034 209.511 24.2045 209.954 23.6136C210.403 23.017 211.025 22.5568 211.821 22.233C212.622 21.9034 213.545 21.7386 214.591 21.7386C216.125 21.7386 217.332 22.0653 218.213 22.7188C219.099 23.3722 219.647 24.2557 219.858 25.3693Z" fill="white"/>
</svg>
