<svg width="301" height="53" viewBox="0 0 301 53" fill="none" xmlns="http://www.w3.org/2000/svg">
<path d="M17.6591 19.4205V17.5455H30.75V19.4205H25.2614V35H23.1477V19.4205H17.6591ZM37.3295 35.2727C36.0682 35.2727 34.9801 34.9943 34.0653 34.4375C33.1562 33.875 32.4545 33.0909 31.9602 32.0852C31.4716 31.0739 31.2273 29.8977 31.2273 28.5568C31.2273 27.2159 31.4716 26.0341 31.9602 25.0114C32.4545 23.983 33.142 23.1818 34.0227 22.608C34.9091 22.0284 35.9432 21.7386 37.125 21.7386C37.8068 21.7386 38.4801 21.8523 39.1449 22.0795C39.8097 22.3068 40.4148 22.6761 40.9602 23.1875C41.5057 23.6932 41.9403 24.3636 42.2642 25.1989C42.5881 26.0341 42.75 27.0625 42.75 28.2841V29.1364H32.6591V27.3977H40.7045C40.7045 26.6591 40.5568 26 40.2614 25.4205C39.9716 24.8409 39.5568 24.3835 39.017 24.0483C38.483 23.7131 37.8523 23.5455 37.125 23.5455C36.3239 23.5455 35.6307 23.7443 35.0455 24.142C34.4659 24.5341 34.0199 25.0455 33.7074 25.6761C33.3949 26.3068 33.2386 26.983 33.2386 27.7045V28.8636C33.2386 29.8523 33.4091 30.6903 33.75 31.3778C34.0966 32.0597 34.5767 32.5795 35.1903 32.9375C35.804 33.2898 36.517 33.4659 37.3295 33.4659C37.858 33.4659 38.3352 33.392 38.7614 33.2443C39.1932 33.0909 39.5653 32.8636 39.8778 32.5625C40.1903 32.2557 40.4318 31.875 40.6023 31.4205L42.5455 31.9659C42.3409 32.625 41.9972 33.2045 41.5142 33.7045C41.0313 34.1989 40.4347 34.5852 39.7244 34.8636C39.0142 35.1364 38.2159 35.2727 37.3295 35.2727ZM55.0824 24.8409L53.2756 25.3523C53.1619 25.0511 52.9943 24.7585 52.7727 24.4744C52.5568 24.1847 52.2614 23.946 51.8864 23.7585C51.5114 23.571 51.0312 23.4773 50.446 23.4773C49.6449 23.4773 48.9773 23.6619 48.4432 24.0312C47.9148 24.3949 47.6506 24.858 47.6506 25.4205C47.6506 25.9205 47.8324 26.3153 48.196 26.6051C48.5597 26.8949 49.1278 27.1364 49.9006 27.3295L51.8438 27.8068C53.0142 28.0909 53.8864 28.5256 54.4602 29.1108C55.0341 29.6903 55.321 30.4375 55.321 31.3523C55.321 32.1023 55.1051 32.7727 54.6733 33.3636C54.2472 33.9545 53.6506 34.4205 52.8835 34.7614C52.1165 35.1023 51.2244 35.2727 50.2074 35.2727C48.8722 35.2727 47.767 34.983 46.892 34.4034C46.017 33.8239 45.4631 32.9773 45.2301 31.8636L47.1392 31.3864C47.321 32.0909 47.6648 32.6193 48.1705 32.9716C48.6818 33.3239 49.3494 33.5 50.1733 33.5C51.1108 33.5 51.8551 33.3011 52.4062 32.9034C52.9631 32.5 53.2415 32.017 53.2415 31.4545C53.2415 31 53.0824 30.6193 52.7642 30.3125C52.446 30 51.9574 29.767 51.2983 29.6136L49.1165 29.1023C47.9176 28.8182 47.0369 28.3778 46.4744 27.7812C45.9176 27.179 45.6392 26.4261 45.6392 25.5227C45.6392 24.7841 45.8466 24.1307 46.2614 23.5625C46.6818 22.9943 47.2528 22.5483 47.9744 22.2244C48.7017 21.9006 49.5256 21.7386 50.446 21.7386C51.7415 21.7386 52.7585 22.0227 53.4972 22.5909C54.2415 23.1591 54.7699 23.9091 55.0824 24.8409ZM64.0419 21.9091V23.6136H57.2578V21.9091H64.0419ZM59.2351 18.7727H61.2464V31.25C61.2464 31.8182 61.3288 32.2443 61.4936 32.5284C61.6641 32.8068 61.88 32.9943 62.1413 33.0909C62.4084 33.1818 62.6896 33.2273 62.9851 33.2273C63.2067 33.2273 63.3885 33.2159 63.5305 33.1932C63.6726 33.1648 63.7862 33.142 63.8714 33.125L64.2805 34.9318C64.1442 34.983 63.9538 35.0341 63.7095 35.0852C63.4652 35.142 63.1555 35.1705 62.7805 35.1705C62.2124 35.1705 61.6555 35.0483 61.1101 34.804C60.5703 34.5597 60.1214 34.1875 59.7635 33.6875C59.4112 33.1875 59.2351 32.5568 59.2351 31.7955V18.7727ZM67.0675 35V21.9091H69.0788V35H67.0675ZM68.0902 19.7273C67.6982 19.7273 67.3601 19.5938 67.076 19.3267C66.7976 19.0597 66.6584 18.7386 66.6584 18.3636C66.6584 17.9886 66.7976 17.6676 67.076 17.4006C67.3601 17.1335 67.6982 17 68.0902 17C68.4822 17 68.8175 17.1335 69.0959 17.4006C69.38 17.6676 69.522 17.9886 69.522 18.3636C69.522 18.7386 69.38 19.0597 69.0959 19.3267C68.8175 19.5938 68.4822 19.7273 68.0902 19.7273ZM74.7741 27.125V35H72.7628V21.9091H74.706V23.9545H74.8764C75.1832 23.2898 75.6491 22.7557 76.2741 22.3523C76.8991 21.9432 77.706 21.7386 78.6946 21.7386C79.581 21.7386 80.3565 21.9205 81.0213 22.2841C81.6861 22.642 82.2031 23.1875 82.5724 23.9205C82.9418 24.6477 83.1264 25.5682 83.1264 26.6818V35H81.1151V26.8182C81.1151 25.7898 80.848 24.9886 80.3139 24.4148C79.7798 23.8352 79.0469 23.5455 78.1151 23.5455C77.473 23.5455 76.8991 23.6847 76.3935 23.9631C75.8935 24.2415 75.4986 24.6477 75.2088 25.1818C74.919 25.7159 74.7741 26.3636 74.7741 27.125ZM92.0859 40.1818C91.1143 40.1818 90.2791 40.0568 89.5803 39.8068C88.8814 39.5625 88.299 39.2386 87.8331 38.8352C87.3729 38.4375 87.0064 38.0114 86.7337 37.5568L88.3359 36.4318C88.5178 36.6705 88.7479 36.9432 89.0263 37.25C89.3047 37.5625 89.6854 37.8324 90.1683 38.0597C90.657 38.2926 91.2962 38.4091 92.0859 38.4091C93.1428 38.4091 94.0149 38.1534 94.7024 37.642C95.3899 37.1307 95.7337 36.3295 95.7337 35.2386V32.5795H95.5632C95.4155 32.8182 95.2053 33.1136 94.9325 33.4659C94.6655 33.8125 94.2791 34.1222 93.7734 34.3949C93.2734 34.6619 92.5973 34.7955 91.745 34.7955C90.6882 34.7955 89.7393 34.5455 88.8984 34.0455C88.0632 33.5455 87.4013 32.8182 86.9126 31.8636C86.4297 30.9091 86.1882 29.75 86.1882 28.3864C86.1882 27.0455 86.424 25.8778 86.8956 24.8835C87.3672 23.8835 88.0234 23.1108 88.8643 22.5653C89.7053 22.0142 90.6768 21.7386 91.7791 21.7386C92.6314 21.7386 93.3075 21.8807 93.8075 22.1648C94.3132 22.4432 94.6996 22.7614 94.9666 23.1193C95.2393 23.4716 95.4496 23.7614 95.5973 23.9886H95.8018V21.9091H97.745V35.375C97.745 36.5 97.4893 37.4148 96.978 38.1193C96.4723 38.8295 95.7905 39.3494 94.9325 39.679C94.0803 40.0142 93.1314 40.1818 92.0859 40.1818ZM92.0178 32.9886C92.8246 32.9886 93.5064 32.804 94.0632 32.4347C94.62 32.0653 95.0433 31.5341 95.3331 30.8409C95.6229 30.1477 95.7678 29.3182 95.7678 28.3523C95.7678 27.4091 95.6257 26.5767 95.3416 25.8551C95.0575 25.1335 94.6371 24.5682 94.0803 24.1591C93.5234 23.75 92.8359 23.5455 92.0178 23.5455C91.1655 23.5455 90.4553 23.7614 89.8871 24.1932C89.3246 24.625 88.9013 25.2045 88.6172 25.9318C88.3388 26.6591 88.1996 27.4659 88.1996 28.3523C88.1996 29.2614 88.3416 30.0653 88.6257 30.7642C88.9155 31.4574 89.3416 32.0028 89.9041 32.4006C90.4723 32.7926 91.1768 32.9886 92.0178 32.9886ZM102.893 35.1364C102.472 35.1364 102.112 34.9858 101.81 34.6847C101.509 34.3835 101.359 34.0227 101.359 33.6023C101.359 33.1818 101.509 32.821 101.81 32.5199C102.112 32.2187 102.472 32.0682 102.893 32.0682C103.313 32.0682 103.674 32.2187 103.975 32.5199C104.276 32.821 104.427 33.1818 104.427 33.6023C104.427 33.8807 104.356 34.1364 104.214 34.3693C104.077 34.6023 103.893 34.7898 103.66 34.9318C103.433 35.0682 103.177 35.1364 102.893 35.1364ZM107.661 35V33.4659L115.093 23.9205V23.7841H107.9V21.9091H117.684V23.5114L110.457 32.9886V33.125H117.923V35H107.661ZM121.021 35V21.9091H123.032V35H121.021ZM122.043 19.7273C121.651 19.7273 121.313 19.5938 121.029 19.3267C120.751 19.0597 120.612 18.7386 120.612 18.3636C120.612 17.9886 120.751 17.6676 121.029 17.4006C121.313 17.1335 121.651 17 122.043 17C122.435 17 122.771 17.1335 123.049 17.4006C123.333 17.6676 123.475 17.9886 123.475 18.3636C123.475 18.7386 123.333 19.0597 123.049 19.3267C122.771 19.5938 122.435 19.7273 122.043 19.7273ZM126.716 39.9091V21.9091H128.659V23.9886H128.898C129.045 23.7614 129.25 23.4716 129.511 23.1193C129.778 22.7614 130.159 22.4432 130.653 22.1648C131.153 21.8807 131.83 21.7386 132.682 21.7386C133.784 21.7386 134.756 22.0142 135.597 22.5653C136.438 23.1165 137.094 23.8977 137.565 24.9091C138.037 25.9205 138.273 27.1136 138.273 28.4886C138.273 29.875 138.037 31.0767 137.565 32.0938C137.094 33.1051 136.44 33.8892 135.605 34.446C134.77 34.9972 133.807 35.2727 132.716 35.2727C131.875 35.2727 131.202 35.1335 130.696 34.8551C130.19 34.571 129.801 34.25 129.528 33.892C129.256 33.5284 129.045 33.2273 128.898 32.9886H128.727V39.9091H126.716ZM128.693 28.4545C128.693 29.4432 128.838 30.3153 129.128 31.071C129.418 31.821 129.841 32.4091 130.398 32.8352C130.955 33.2557 131.636 33.4659 132.443 33.4659C133.284 33.4659 133.986 33.2443 134.548 32.8011C135.116 32.3523 135.543 31.75 135.827 30.9943C136.116 30.233 136.261 29.3864 136.261 28.4545C136.261 27.5341 136.119 26.7045 135.835 25.9659C135.557 25.2216 135.134 24.6335 134.565 24.2017C134.003 23.7642 133.295 23.5455 132.443 23.5455C131.625 23.5455 130.938 23.7528 130.381 24.1676C129.824 24.5767 129.403 25.1506 129.119 25.8892C128.835 26.6222 128.693 27.4773 128.693 28.4545Z" fill="black"/>
<rect x="1" y="0.5" width="299" height="52" stroke="#D9D9D9"/>
</svg>
