<svg width="770" height="491" viewBox="0 0 770 491" fill="none" xmlns="http://www.w3.org/2000/svg">
<path d="M433.208 16.9034C433.166 15.9471 432.385 15.2018 431.429 15.2018H377.027L361.15 0.478138C360.82 0.168758 360.391 0 359.941 0H335.001C334.509 0 334.038 0.203912 333.7 0.562511L319.455 15.7573C319.124 16.1089 318.955 16.5729 318.976 17.0511L322.541 98.2914C322.583 99.2406 323.364 99.993 324.32 99.993H434.994C435.479 99.993 435.943 99.7961 436.281 99.4445C436.618 99.093 436.794 98.6219 436.773 98.1367L433.208 16.9034Z" fill="#719F40"/>
<path d="M428.328 29.4333L324.601 32.8786C323.617 32.9138 322.851 33.7365 322.879 34.7209L324.904 95.725C324.939 96.7093 325.762 97.4757 326.746 97.4476L430.473 94.0093C431.457 93.9741 432.223 93.1515 432.195 92.1671L430.17 31.163C430.135 30.1716 429.312 29.3981 428.328 29.4333Z" fill="#E6E6E5"/>
<path d="M433.236 22.9011L329.46 21.3261C328.476 21.3121 327.667 22.0925 327.653 23.0769L326.725 84.1021C326.711 85.0865 327.498 85.8951 328.483 85.9092L432.258 87.4842C433.243 87.4983 434.051 86.7107 434.066 85.7334L434.994 24.7012C435.008 23.7238 434.22 22.9152 433.236 22.9011Z" fill="#F3F3F3"/>
<path d="M438.629 26.4309L335.591 13.9783C334.614 13.8588 333.728 14.5549 333.608 15.5323L326.289 76.1285C326.169 77.1059 326.865 77.9918 327.843 78.1114L430.88 90.5639C431.858 90.6835 432.744 89.9873 432.863 89.01L440.183 28.4137C440.302 27.4364 439.606 26.5504 438.629 26.4309Z" fill="white"/>
<path d="M450.597 9.42904C450.259 9.02826 449.767 8.80325 449.24 8.80325H394.142C393.692 8.80325 393.263 8.97201 392.932 9.28139L377.056 24.0051H338.566C337.715 24.0051 336.984 24.6098 336.815 25.4395L322.57 97.8765C322.464 98.3969 322.605 98.9383 322.942 99.3531C323.28 99.7609 323.786 100 324.32 100H434.994C435.866 100 436.611 99.3672 436.752 98.5023L451.004 10.8634C451.082 10.3502 450.941 9.8228 450.597 9.42904Z" fill="#8DC641"/>
<path d="M322.941 99.3461C323.279 99.754 323.785 99.993 324.32 99.993H434.993C435.865 99.993 436.61 99.3602 436.751 98.4953L440.892 73.0418L322.569 97.8766C322.47 98.3969 322.604 98.9383 322.941 99.3461Z" fill="#83B941"/>
<path d="M355.514 135V120.455H360.699C361.83 120.455 362.768 120.661 363.511 121.072C364.255 121.484 364.811 122.048 365.18 122.763C365.55 123.473 365.734 124.273 365.734 125.163C365.734 126.058 365.547 126.863 365.173 127.578C364.804 128.288 364.245 128.852 363.497 129.268C362.754 129.68 361.818 129.886 360.692 129.886H357.126V128.026H360.493C361.208 128.026 361.788 127.902 362.233 127.656C362.678 127.405 363.005 127.064 363.213 126.634C363.421 126.203 363.525 125.713 363.525 125.163C363.525 124.614 363.421 124.126 363.213 123.7C363.005 123.274 362.675 122.94 362.226 122.699C361.781 122.457 361.193 122.337 360.464 122.337H357.709V135H355.514ZM372.595 135.22C371.572 135.22 370.68 134.986 369.917 134.517C369.155 134.048 368.563 133.393 368.142 132.55C367.72 131.707 367.51 130.722 367.51 129.595C367.51 128.464 367.72 127.474 368.142 126.626C368.563 125.779 369.155 125.121 369.917 124.652C370.68 124.183 371.572 123.949 372.595 123.949C373.618 123.949 374.51 124.183 375.273 124.652C376.035 125.121 376.627 125.779 377.048 126.626C377.47 127.474 377.68 128.464 377.68 129.595C377.68 130.722 377.47 131.707 377.048 132.55C376.627 133.393 376.035 134.048 375.273 134.517C374.51 134.986 373.618 135.22 372.595 135.22ZM372.602 133.438C373.265 133.438 373.814 133.262 374.25 132.912C374.685 132.562 375.007 132.095 375.216 131.513C375.429 130.93 375.535 130.289 375.535 129.588C375.535 128.892 375.429 128.253 375.216 127.67C375.007 127.083 374.685 126.612 374.25 126.257C373.814 125.902 373.265 125.724 372.602 125.724C371.934 125.724 371.381 125.902 370.94 126.257C370.505 126.612 370.18 127.083 369.967 127.67C369.759 128.253 369.655 128.892 369.655 129.588C369.655 130.289 369.759 130.93 369.967 131.513C370.18 132.095 370.505 132.562 370.94 132.912C371.381 133.262 371.934 133.438 372.602 133.438ZM388.225 126.754L386.301 127.095C386.22 126.849 386.092 126.615 385.917 126.392C385.747 126.17 385.515 125.987 385.221 125.845C384.927 125.703 384.561 125.632 384.12 125.632C383.519 125.632 383.017 125.767 382.615 126.037C382.212 126.302 382.011 126.645 382.011 127.067C382.011 127.431 382.146 127.725 382.416 127.947C382.686 128.17 383.121 128.352 383.722 128.494L385.455 128.892C386.459 129.124 387.207 129.482 387.7 129.964C388.192 130.447 388.438 131.075 388.438 131.847C388.438 132.5 388.249 133.082 387.87 133.594C387.496 134.1 386.973 134.498 386.301 134.787C385.633 135.076 384.859 135.22 383.978 135.22C382.757 135.22 381.76 134.96 380.988 134.439C380.216 133.913 379.743 133.168 379.568 132.202L381.62 131.889C381.748 132.424 382.011 132.829 382.409 133.104C382.806 133.374 383.325 133.509 383.964 133.509C384.66 133.509 385.216 133.364 385.633 133.075C386.05 132.782 386.258 132.424 386.258 132.003C386.258 131.662 386.13 131.375 385.874 131.143C385.624 130.911 385.238 130.736 384.717 130.618L382.87 130.213C381.852 129.981 381.099 129.612 380.612 129.105C380.129 128.598 379.887 127.957 379.887 127.18C379.887 126.536 380.067 125.973 380.427 125.49C380.787 125.007 381.284 124.631 381.919 124.361C382.553 124.086 383.28 123.949 384.099 123.949C385.278 123.949 386.206 124.205 386.883 124.716C387.56 125.223 388.008 125.902 388.225 126.754ZM395.866 124.091V125.795H389.907V124.091H395.866ZM391.505 121.477H393.628V131.797C393.628 132.209 393.69 132.519 393.813 132.727C393.936 132.931 394.095 133.071 394.289 133.146C394.488 133.217 394.703 133.253 394.935 133.253C395.106 133.253 395.255 133.241 395.383 133.217C395.51 133.194 395.61 133.175 395.681 133.161L396.064 134.915C395.941 134.962 395.766 135.009 395.539 135.057C395.312 135.109 395.028 135.137 394.687 135.142C394.128 135.152 393.607 135.052 393.124 134.844C392.641 134.635 392.251 134.313 391.952 133.878C391.654 133.442 391.505 132.895 391.505 132.237V121.477ZM402.799 135.22C401.724 135.22 400.799 134.991 400.022 134.531C399.25 134.067 398.654 133.416 398.232 132.578C397.816 131.735 397.607 130.748 397.607 129.616C397.607 128.499 397.816 127.514 398.232 126.662C398.654 125.81 399.241 125.144 399.994 124.666C400.751 124.188 401.637 123.949 402.65 123.949C403.266 123.949 403.862 124.051 404.44 124.254C405.017 124.458 405.536 124.777 405.995 125.213C406.454 125.649 406.817 126.214 407.082 126.911C407.347 127.602 407.48 128.442 407.48 129.432V130.185H398.808V128.594H405.399C405.399 128.035 405.285 127.54 405.058 127.109C404.83 126.674 404.511 126.33 404.099 126.08C403.692 125.829 403.213 125.703 402.664 125.703C402.068 125.703 401.547 125.85 401.102 126.143C400.661 126.432 400.32 126.811 400.079 127.28C399.842 127.744 399.724 128.248 399.724 128.793V130.036C399.724 130.765 399.852 131.385 400.107 131.896C400.368 132.408 400.73 132.798 401.194 133.068C401.658 133.333 402.2 133.466 402.82 133.466C403.223 133.466 403.59 133.409 403.921 133.295C404.253 133.177 404.539 133.002 404.781 132.77C405.022 132.538 405.207 132.251 405.335 131.911L407.345 132.273C407.184 132.865 406.895 133.383 406.478 133.828C406.066 134.268 405.548 134.612 404.923 134.858C404.302 135.099 403.595 135.22 402.799 135.22ZM409.836 135V124.091H411.888V125.824H412.002C412.201 125.237 412.551 124.775 413.053 124.439C413.56 124.098 414.133 123.928 414.772 123.928C414.904 123.928 415.061 123.932 415.241 123.942C415.425 123.951 415.57 123.963 415.674 123.977V126.009C415.589 125.985 415.437 125.959 415.219 125.93C415.001 125.897 414.784 125.881 414.566 125.881C414.064 125.881 413.617 125.987 413.224 126.2C412.835 126.409 412.528 126.7 412.3 127.074C412.073 127.443 411.959 127.865 411.959 128.338V135H409.836Z" fill="black"/>
<path d="M385 198.687V199.687H386V198.687H385ZM67 198.687V197.687H66V198.687H67ZM66.2929 228.707C66.6834 229.098 67.3166 229.098 67.7071 228.707L74.0711 222.343C74.4616 221.953 74.4616 221.319 74.0711 220.929C73.6805 220.538 73.0474 220.538 72.6569 220.929L67 226.586L61.3431 220.929C60.9526 220.538 60.3195 220.538 59.9289 220.929C59.5384 221.319 59.5384 221.953 59.9289 222.343L66.2929 228.707ZM384 148V198.687H386V148H384ZM385 197.687H67V199.687H385V197.687ZM66 198.687V228H68V198.687H66Z" fill="#8DC641"/>
<path d="M385 198.687V199.687H384V198.687H385ZM703 198.687V197.687H704V198.687H703ZM703.707 228.707C703.317 229.098 702.683 229.098 702.293 228.707L695.929 222.343C695.538 221.953 695.538 221.319 695.929 220.929C696.319 220.538 696.953 220.538 697.343 220.929L703 226.586L708.657 220.929C709.047 220.538 709.681 220.538 710.071 220.929C710.462 221.319 710.462 221.953 710.071 222.343L703.707 228.707ZM386 148V198.687H384V148H386ZM385 197.687H703V199.687H385V197.687ZM704 198.687V228H702V198.687H704Z" fill="#8DC641"/>
<path d="M278.293 228.707C278.683 229.098 279.317 229.098 279.707 228.707L286.071 222.343C286.462 221.953 286.462 221.319 286.071 220.929C285.681 220.538 285.047 220.538 284.657 220.929L279 226.586L273.343 220.929C272.953 220.538 272.319 220.538 271.929 220.929C271.538 221.319 271.538 221.953 271.929 222.343L278.293 228.707ZM278 199L278 228L280 228L280 199L278 199Z" fill="#8DC641"/>
<path d="M490.293 228.707C490.683 229.098 491.317 229.098 491.707 228.707L498.071 222.343C498.462 221.953 498.462 221.319 498.071 220.929C497.681 220.538 497.047 220.538 496.657 220.929L491 226.586L485.343 220.929C484.953 220.538 484.319 220.538 483.929 220.929C483.538 221.319 483.538 221.953 483.929 222.343L490.293 228.707ZM490 199L490 228L492 228L492 199L490 199Z" fill="#8DC641"/>
<path d="M115.133 264.903C115.09 263.954 114.31 263.202 113.354 263.202H58.9521L43.0753 248.478C42.7448 248.176 42.3159 248 41.8659 248H16.9257C16.4335 248 15.9624 248.204 15.6248 248.563L1.37933 263.757C1.04885 264.109 0.880083 264.573 0.901177 265.051L4.46608 346.291C4.50827 347.241 5.28875 347.993 6.24501 347.993H116.919C117.404 347.993 117.868 347.796 118.205 347.445C118.543 347.093 118.719 346.622 118.698 346.137L115.133 264.903Z" fill="#DC5B26"/>
<path d="M110.253 277.433L6.52615 280.879C5.54176 280.914 4.77536 281.736 4.80348 282.721L6.82852 343.725C6.85664 344.709 7.68634 345.476 8.67073 345.448L112.397 342.002C113.382 341.967 114.148 341.144 114.12 340.16L112.095 279.156C112.06 278.172 111.237 277.398 110.253 277.433Z" fill="#E6E6E5"/>
<path d="M115.161 270.901L11.3848 269.326C10.4004 269.312 9.59179 270.1 9.57772 271.077L8.6496 332.109C8.63554 333.094 9.42304 333.902 10.4004 333.916L114.176 335.491C115.161 335.505 115.969 334.725 115.983 333.74L116.911 272.708C116.933 271.724 116.145 270.915 115.161 270.901Z" fill="#F3F3F3"/>
<path d="M120.554 274.431L17.516 261.985C16.5387 261.866 15.6527 262.562 15.5332 263.539L8.21355 324.136C8.09402 325.113 8.79012 325.999 9.76748 326.118L112.805 338.571C113.782 338.69 114.668 337.994 114.788 337.017L122.108 276.421C122.227 275.436 121.531 274.55 120.554 274.431Z" fill="white"/>
<path d="M132.521 257.429C132.184 257.028 131.692 256.803 131.164 256.803H76.0666C75.6166 256.803 75.1877 256.972 74.8572 257.281L58.9804 272.005H20.4907C19.6399 272.005 18.9086 272.61 18.7399 273.439L4.49436 345.877C4.38889 346.397 4.52952 346.938 4.86702 347.353C5.20453 347.761 5.71078 348 6.24516 348H116.919C117.791 348 118.536 347.367 118.677 346.502L132.929 258.863C133.007 258.35 132.866 257.823 132.521 257.429Z" fill="#F9A572"/>
<path d="M4.86617 347.346C5.20368 347.754 5.70993 347.993 6.24431 347.993H116.918C117.79 347.993 118.535 347.36 118.676 346.495L122.81 321.042L4.49351 345.877C4.39507 346.397 4.52867 346.938 4.86617 347.346Z" fill="#EC7E3C"/>
<path d="M43.4172 383.241C42.295 383.237 41.3362 382.941 40.5407 382.354C39.7453 381.767 39.1369 380.912 38.7155 379.79C38.2941 378.668 38.0834 377.316 38.0834 375.734C38.0834 374.158 38.2941 372.811 38.7155 371.693C39.1416 370.576 39.7524 369.723 40.5479 369.136C41.348 368.549 42.3045 368.256 43.4172 368.256C44.5299 368.256 45.4839 368.552 46.2794 369.143C47.0748 369.731 47.6833 370.583 48.1047 371.7C48.5308 372.813 48.7439 374.158 48.7439 375.734C48.7439 377.321 48.5332 378.675 48.1118 379.797C47.6904 380.914 47.0819 381.769 46.2865 382.361C45.491 382.948 44.5346 383.241 43.4172 383.241ZM43.4172 381.345C44.402 381.345 45.1714 380.865 45.7254 379.903C46.2841 378.942 46.5635 377.553 46.5635 375.734C46.5635 374.527 46.4356 373.507 46.18 372.673C45.929 371.835 45.5668 371.201 45.0933 370.77C44.6246 370.334 44.0658 370.116 43.4172 370.116C42.4371 370.116 41.6676 370.599 41.1089 371.565C40.5502 372.531 40.2685 373.921 40.2638 375.734C40.2638 376.946 40.3892 377.972 40.6402 378.81C40.8959 379.643 41.2581 380.275 41.7268 380.706C42.1956 381.132 42.759 381.345 43.4172 381.345ZM56.3273 383.241C55.2052 383.237 54.2464 382.941 53.4509 382.354C52.6555 381.767 52.047 380.912 51.6256 379.79C51.2042 378.668 50.9935 377.316 50.9935 375.734C50.9935 374.158 51.2042 372.811 51.6256 371.693C52.0518 370.576 52.6626 369.723 53.458 369.136C54.2582 368.549 55.2146 368.256 56.3273 368.256C57.44 368.256 58.3941 368.552 59.1895 369.143C59.985 369.731 60.5934 370.583 61.0148 371.7C61.441 372.813 61.654 374.158 61.654 375.734C61.654 377.321 61.4433 378.675 61.0219 379.797C60.6005 380.914 59.9921 381.769 59.1966 382.361C58.4012 382.948 57.4448 383.241 56.3273 383.241ZM56.3273 381.345C57.3122 381.345 58.0816 380.865 58.6356 379.903C59.1943 378.942 59.4736 377.553 59.4736 375.734C59.4736 374.527 59.3458 373.507 59.0901 372.673C58.8392 371.835 58.4769 371.201 58.0035 370.77C57.5347 370.334 56.976 370.116 56.3273 370.116C55.3472 370.116 54.5778 370.599 54.0191 371.565C53.4604 372.531 53.1787 373.921 53.1739 375.734C53.1739 376.946 53.2994 377.972 53.5503 378.81C53.806 379.643 54.1682 380.275 54.637 380.706C55.1057 381.132 55.6692 381.345 56.3273 381.345ZM70.6295 375.933V377.773H64.1807V375.933H70.6295ZM73.6302 383V368.455H75.7538V373.859H75.8817C76.0048 373.632 76.1823 373.369 76.4143 373.071C76.6463 372.773 76.9683 372.512 77.3802 372.29C77.7922 372.062 78.3367 371.949 79.0138 371.949C79.8944 371.949 80.6804 372.171 81.3717 372.616C82.063 373.062 82.6051 373.703 82.9981 374.541C83.3959 375.379 83.5947 376.388 83.5947 377.567C83.5947 378.746 83.3982 379.757 83.0052 380.599C82.6122 381.437 82.0725 382.084 81.3859 382.538C80.6994 382.988 79.9157 383.213 79.0351 383.213C78.3722 383.213 77.83 383.102 77.4086 382.879C76.992 382.657 76.6653 382.396 76.4285 382.098C76.1918 381.8 76.0095 381.535 75.8817 381.303H75.7041V383H73.6302ZM75.7112 377.545C75.7112 378.312 75.8225 378.985 76.045 379.562C76.2675 380.14 76.5895 380.592 77.0109 380.919C77.4323 381.241 77.9484 381.402 78.5592 381.402C79.1937 381.402 79.724 381.234 80.1501 380.898C80.5763 380.557 80.8982 380.095 81.116 379.513C81.3386 378.93 81.4498 378.275 81.4498 377.545C81.4498 376.826 81.3409 376.179 81.1231 375.607C80.9101 375.034 80.5881 374.581 80.1572 374.25C79.7311 373.919 79.1984 373.753 78.5592 373.753C77.9437 373.753 77.4229 373.911 76.9967 374.229C76.5753 374.546 76.2557 374.989 76.0379 375.557C75.8201 376.125 75.7112 376.788 75.7112 377.545ZM90.5532 387.318C89.6867 387.318 88.941 387.205 88.316 386.977C87.6957 386.75 87.1891 386.449 86.7961 386.075C86.4031 385.701 86.1095 385.292 85.9154 384.847L87.7407 384.094C87.8685 384.302 88.039 384.522 88.252 384.754C88.4698 384.991 88.7634 385.192 89.1327 385.358C89.5068 385.524 89.9874 385.607 90.5745 385.607C91.3794 385.607 92.0447 385.41 92.5702 385.017C93.0958 384.629 93.3586 384.009 93.3586 383.156V381.011H93.2236C93.0958 381.243 92.9111 381.501 92.6697 381.786C92.4329 382.07 92.1062 382.316 91.6895 382.524C91.2729 382.732 90.7307 382.837 90.0631 382.837C89.2014 382.837 88.4249 382.635 87.7336 382.233C87.047 381.826 86.5025 381.227 86.1001 380.436C85.7023 379.641 85.5035 378.663 85.5035 377.503C85.5035 376.343 85.7 375.348 86.093 374.52C86.4907 373.691 87.0352 373.057 87.7265 372.616C88.4178 372.171 89.2014 371.949 90.0773 371.949C90.7544 371.949 91.3013 372.062 91.718 372.29C92.1346 372.512 92.459 372.773 92.691 373.071C92.9277 373.369 93.11 373.632 93.2378 373.859H93.3941V372.091H95.4751V383.241C95.4751 384.179 95.2573 384.948 94.8216 385.55C94.386 386.151 93.7965 386.596 93.0532 386.885C92.3145 387.174 91.4812 387.318 90.5532 387.318ZM90.5319 381.075C91.1427 381.075 91.6588 380.933 92.0802 380.649C92.5063 380.36 92.8283 379.948 93.0461 379.413C93.2686 378.874 93.3799 378.227 93.3799 377.474C93.3799 376.741 93.271 376.094 93.0532 375.536C92.8354 374.977 92.5158 374.541 92.0944 374.229C91.673 373.911 91.1521 373.753 90.5319 373.753C89.8927 373.753 89.36 373.919 88.9339 374.25C88.5077 374.577 88.1858 375.022 87.968 375.585C87.7549 376.149 87.6483 376.778 87.6483 377.474C87.6483 378.189 87.7573 378.817 87.9751 379.357C88.1929 379.896 88.5148 380.318 88.941 380.621C89.3718 380.924 89.9021 381.075 90.5319 381.075Z" fill="black"/>
<path d="M66.2177 423.707C66.6082 424.098 67.2414 424.098 67.6319 423.707L73.9959 417.343C74.3864 416.953 74.3864 416.319 73.9959 415.929C73.6053 415.538 72.9722 415.538 72.5817 415.929L66.9248 421.586L61.268 415.929C60.8774 415.538 60.2443 415.538 59.8537 415.929C59.4632 416.319 59.4632 416.953 59.8537 417.343L66.2177 423.707ZM65.9248 396V423H67.9248V396H65.9248Z" fill="#F9A572"/>
<rect x="14.9248" y="445" width="44" height="44" rx="2" fill="white" stroke="#F9A572" stroke-width="4"/>
<path d="M21.4553 473V461.364H25.819C26.7129 461.364 27.4629 461.53 28.069 461.864C28.6788 462.197 29.1391 462.655 29.4497 463.239C29.7641 463.818 29.9213 464.477 29.9213 465.216C29.9213 465.962 29.7641 466.625 29.4497 467.205C29.1353 467.784 28.6713 468.241 28.0576 468.574C27.444 468.903 26.6883 469.068 25.7906 469.068H22.8985V467.335H25.5065C26.0292 467.335 26.4572 467.244 26.7906 467.062C27.1239 466.881 27.3701 466.631 27.5292 466.312C27.6921 465.994 27.7735 465.629 27.7735 465.216C27.7735 464.803 27.6921 464.439 27.5292 464.125C27.3701 463.811 27.122 463.566 26.7849 463.392C26.4516 463.214 26.0216 463.125 25.4951 463.125H23.5633V473H21.4553ZM41.3147 461.364V473H39.4397L33.9568 465.074H33.8602V473H31.7522V461.364H33.6386L39.1159 469.295H39.2181V461.364H41.3147ZM51.407 465.08C51.3124 464.773 51.1817 464.498 51.015 464.256C50.8521 464.009 50.6552 463.799 50.4241 463.625C50.1968 463.451 49.9355 463.32 49.64 463.233C49.3445 463.142 49.0226 463.097 48.6741 463.097C48.0491 463.097 47.4923 463.254 47.0036 463.568C46.515 463.883 46.1305 464.345 45.8502 464.955C45.5737 465.561 45.4355 466.299 45.4355 467.17C45.4355 468.049 45.5737 468.794 45.8502 469.403C46.1267 470.013 46.5112 470.477 47.0036 470.795C47.4961 471.11 48.068 471.267 48.7195 471.267C49.3105 471.267 49.8218 471.153 50.2536 470.926C50.6892 470.699 51.0245 470.377 51.2593 469.96C51.4942 469.54 51.6116 469.047 51.6116 468.483L52.0889 468.557H48.9298V466.909H53.6514V468.307C53.6514 469.303 53.4392 470.165 53.015 470.892C52.5908 471.619 52.0074 472.18 51.265 472.574C50.5226 472.964 49.6703 473.159 48.7082 473.159C47.6362 473.159 46.6949 472.919 45.8843 472.438C45.0775 471.953 44.4468 471.265 43.9923 470.375C43.5415 469.481 43.3161 468.42 43.3161 467.193C43.3161 466.254 43.4487 465.415 43.7139 464.676C43.9828 463.938 44.3578 463.311 44.8389 462.795C45.3199 462.277 45.8843 461.883 46.532 461.614C47.1798 461.341 47.8843 461.205 48.6457 461.205C49.2896 461.205 49.89 461.299 50.4468 461.489C51.0036 461.674 51.498 461.939 51.9298 462.284C52.3654 462.629 52.7233 463.038 53.0036 463.511C53.2839 463.985 53.4677 464.508 53.5548 465.08H51.407Z" fill="#F9A572"/>
<rect x="74.9248" y="445" width="44" height="44" rx="2" fill="white" stroke="#F9A572" stroke-width="4"/>
<path d="M87.0668 461.364H89.1577V469.545C89.1539 470.295 88.9948 470.941 88.6804 471.483C88.366 472.021 87.9266 472.436 87.3622 472.727C86.8016 473.015 86.1482 473.159 85.402 473.159C84.7202 473.159 84.1065 473.038 83.5611 472.795C83.0194 472.549 82.5895 472.186 82.2713 471.705C81.9531 471.223 81.794 470.625 81.794 469.909H83.8906C83.8944 470.223 83.9626 470.494 84.0952 470.722C84.2315 470.949 84.419 471.123 84.6577 471.244C84.8963 471.366 85.1709 471.426 85.4815 471.426C85.8187 471.426 86.1046 471.356 86.3395 471.216C86.5743 471.072 86.7524 470.86 86.8736 470.58C86.9986 470.299 87.063 469.955 87.0668 469.545V461.364ZM91.4446 473V461.364H95.8082C96.7022 461.364 97.4522 461.53 98.0582 461.864C98.6681 462.197 99.1283 462.655 99.4389 463.239C99.7533 463.818 99.9105 464.477 99.9105 465.216C99.9105 465.962 99.7533 466.625 99.4389 467.205C99.1245 467.784 98.6605 468.241 98.0469 468.574C97.4332 468.903 96.6776 469.068 95.7798 469.068H92.8878V467.335H95.4957C96.0185 467.335 96.4465 467.244 96.7798 467.062C97.1132 466.881 97.3594 466.631 97.5185 466.312C97.6813 465.994 97.7628 465.629 97.7628 465.216C97.7628 464.803 97.6813 464.439 97.5185 464.125C97.3594 463.811 97.1113 463.566 96.7741 463.392C96.4408 463.214 96.0109 463.125 95.4844 463.125H93.5526V473H91.4446ZM109.537 465.08C109.442 464.773 109.312 464.498 109.145 464.256C108.982 464.009 108.785 463.799 108.554 463.625C108.327 463.451 108.065 463.32 107.77 463.233C107.474 463.142 107.152 463.097 106.804 463.097C106.179 463.097 105.622 463.254 105.134 463.568C104.645 463.883 104.26 464.345 103.98 464.955C103.704 465.561 103.565 466.299 103.565 467.17C103.565 468.049 103.704 468.794 103.98 469.403C104.257 470.013 104.641 470.477 105.134 470.795C105.626 471.11 106.198 471.267 106.849 471.267C107.44 471.267 107.952 471.153 108.384 470.926C108.819 470.699 109.154 470.377 109.389 469.96C109.624 469.54 109.741 469.047 109.741 468.483L110.219 468.557H107.06V466.909H111.781V468.307C111.781 469.303 111.569 470.165 111.145 470.892C110.721 471.619 110.137 472.18 109.395 472.574C108.652 472.964 107.8 473.159 106.838 473.159C105.766 473.159 104.825 472.919 104.014 472.438C103.207 471.953 102.577 471.265 102.122 470.375C101.671 469.481 101.446 468.42 101.446 467.193C101.446 466.254 101.579 465.415 101.844 464.676C102.113 463.938 102.488 463.311 102.969 462.795C103.45 462.277 104.014 461.883 104.662 461.614C105.31 461.341 106.014 461.205 106.776 461.205C107.42 461.205 108.02 461.299 108.577 461.489C109.134 461.674 109.628 461.939 110.06 462.284C110.495 462.629 110.853 463.038 111.134 463.511C111.414 463.985 111.598 464.508 111.685 465.08H109.537Z" fill="#F9A572"/>
<path d="M327.182 264.903C327.14 263.954 326.353 263.202 325.404 263.202H271.002L255.125 248.478C254.795 248.176 254.366 248 253.916 248H228.975C228.483 248 228.012 248.204 227.675 248.563L213.429 263.757C213.099 264.109 212.93 264.573 212.951 265.051L216.516 346.291C216.558 347.241 217.339 347.993 218.295 347.993H328.968C329.454 347.993 329.918 347.796 330.255 347.445C330.593 347.093 330.768 346.622 330.747 346.137L327.182 264.903Z" fill="#D89831"/>
<path d="M322.303 277.433L218.576 280.879C217.592 280.914 216.825 281.736 216.853 282.721L218.878 343.725C218.913 344.709 219.736 345.476 220.721 345.448L324.447 342.002C325.432 341.967 326.198 341.144 326.17 340.16L324.145 279.156C324.11 278.172 323.287 277.398 322.303 277.433Z" fill="#E6E6E5"/>
<path d="M327.21 270.901L223.435 269.326C222.45 269.312 221.642 270.093 221.628 271.077L220.699 332.109C220.685 333.093 221.473 333.902 222.45 333.916L326.226 335.491C327.21 335.505 328.019 334.725 328.033 333.74L328.961 272.708C328.982 271.724 328.195 270.915 327.21 270.901Z" fill="#F3F3F3"/>
<path d="M332.603 274.431L229.566 261.978C228.588 261.859 227.703 262.555 227.583 263.532L220.263 324.129C220.144 325.106 220.84 325.992 221.817 326.111L324.855 338.564C325.832 338.683 326.718 337.987 326.838 337.01L334.157 276.414C334.277 275.436 333.581 274.55 332.603 274.431Z" fill="white"/>
<path d="M344.571 257.429C344.234 257.028 343.734 256.803 343.214 256.803H288.116C287.666 256.803 287.237 256.972 286.907 257.281L271.03 272.005H232.541C231.69 272.005 230.958 272.61 230.79 273.439L216.544 345.877C216.439 346.397 216.579 346.938 216.917 347.353C217.254 347.761 217.761 348 218.295 348H328.969C329.84 348 330.586 347.367 330.726 346.502L344.979 258.863C345.056 258.35 344.916 257.823 344.571 257.429Z" fill="#FCB23D"/>
<path d="M216.917 347.346C217.254 347.754 217.761 347.993 218.295 347.993H328.969C329.84 347.993 330.586 347.36 330.726 346.495L334.868 321.049L216.544 345.877C216.439 346.397 216.579 346.938 216.917 347.346Z" fill="#F2AB3A"/>
<path d="M251.219 383.241C250.097 383.237 249.138 382.941 248.343 382.354C247.547 381.767 246.939 380.912 246.517 379.79C246.096 378.668 245.885 377.316 245.885 375.734C245.885 374.158 246.096 372.811 246.517 371.693C246.943 370.576 247.554 369.723 248.35 369.136C249.15 368.549 250.106 368.256 251.219 368.256C252.332 368.256 253.286 368.552 254.081 369.143C254.877 369.731 255.485 370.583 255.906 371.7C256.333 372.813 256.546 374.158 256.546 375.734C256.546 377.321 256.335 378.675 255.914 379.797C255.492 380.914 254.884 381.769 254.088 382.361C253.293 382.948 252.336 383.241 251.219 383.241ZM251.219 381.345C252.204 381.345 252.973 380.865 253.527 379.903C254.086 378.942 254.365 377.553 254.365 375.734C254.365 374.527 254.237 373.507 253.982 372.673C253.731 371.835 253.369 371.201 252.895 370.77C252.426 370.334 251.868 370.116 251.219 370.116C250.239 370.116 249.469 370.599 248.911 371.565C248.352 372.531 248.07 373.921 248.066 375.734C248.066 376.946 248.191 377.972 248.442 378.81C248.698 379.643 249.06 380.275 249.529 380.706C249.997 381.132 250.561 381.345 251.219 381.345ZM264.584 368.455V383H262.382V370.656H262.297L258.817 372.929V370.827L262.446 368.455H264.584ZM274.974 375.933V377.773H268.525V375.933H274.974ZM282.897 372.091V373.795H276.938V372.091H282.897ZM278.536 369.477H280.66V379.797C280.66 380.209 280.721 380.519 280.844 380.727C280.967 380.931 281.126 381.071 281.32 381.146C281.519 381.217 281.734 381.253 281.966 381.253C282.137 381.253 282.286 381.241 282.414 381.217C282.542 381.194 282.641 381.175 282.712 381.161L283.096 382.915C282.973 382.962 282.797 383.009 282.57 383.057C282.343 383.109 282.059 383.137 281.718 383.142C281.159 383.152 280.638 383.052 280.155 382.844C279.672 382.635 279.282 382.313 278.983 381.878C278.685 381.442 278.536 380.895 278.536 380.237V369.477ZM285.246 383V372.091H287.369V383H285.246ZM286.318 370.408C285.949 370.408 285.632 370.285 285.367 370.038C285.106 369.787 284.976 369.489 284.976 369.143C284.976 368.793 285.106 368.495 285.367 368.249C285.632 367.998 285.949 367.872 286.318 367.872C286.688 367.872 287.003 367.998 287.263 368.249C287.528 368.495 287.661 368.793 287.661 369.143C287.661 369.489 287.528 369.787 287.263 370.038C287.003 370.285 286.688 370.408 286.318 370.408ZM295.319 372.091V373.795H289.36V372.091H295.319ZM290.958 369.477H293.081V379.797C293.081 380.209 293.143 380.519 293.266 380.727C293.389 380.931 293.548 381.071 293.742 381.146C293.941 381.217 294.156 381.253 294.388 381.253C294.559 381.253 294.708 381.241 294.836 381.217C294.964 381.194 295.063 381.175 295.134 381.161L295.518 382.915C295.394 382.962 295.219 383.009 294.992 383.057C294.765 383.109 294.481 383.137 294.14 383.142C293.581 383.152 293.06 383.052 292.577 382.844C292.094 382.635 291.704 382.313 291.405 381.878C291.107 381.442 290.958 380.895 290.958 380.237V369.477ZM300.026 368.455V383H297.902V368.455H300.026ZM307.584 383.22C306.51 383.22 305.584 382.991 304.807 382.531C304.036 382.067 303.439 381.416 303.018 380.578C302.601 379.735 302.393 378.748 302.393 377.616C302.393 376.499 302.601 375.514 303.018 374.662C303.439 373.81 304.026 373.144 304.779 372.666C305.537 372.188 306.422 371.949 307.435 371.949C308.051 371.949 308.647 372.051 309.225 372.254C309.803 372.458 310.321 372.777 310.78 373.213C311.24 373.649 311.602 374.214 311.867 374.911C312.132 375.602 312.265 376.442 312.265 377.432V378.185H303.593V376.594H310.184C310.184 376.035 310.07 375.54 309.843 375.109C309.616 374.674 309.296 374.33 308.884 374.08C308.477 373.829 307.999 373.703 307.449 373.703C306.853 373.703 306.332 373.85 305.887 374.143C305.447 374.432 305.106 374.811 304.864 375.28C304.627 375.744 304.509 376.248 304.509 376.793V378.036C304.509 378.765 304.637 379.385 304.893 379.896C305.153 380.408 305.515 380.798 305.979 381.068C306.443 381.333 306.985 381.466 307.606 381.466C308.008 381.466 308.375 381.409 308.706 381.295C309.038 381.177 309.324 381.002 309.566 380.77C309.807 380.538 309.992 380.251 310.12 379.911L312.13 380.273C311.969 380.865 311.68 381.383 311.263 381.828C310.851 382.268 310.333 382.612 309.708 382.858C309.088 383.099 308.38 383.22 307.584 383.22Z" fill="black"/>
<path d="M278.268 423.707C278.658 424.098 279.291 424.098 279.682 423.707L286.046 417.343C286.436 416.953 286.436 416.319 286.046 415.929C285.655 415.538 285.022 415.538 284.631 415.929L278.975 421.586L273.318 415.929C272.927 415.538 272.294 415.538 271.904 415.929C271.513 416.319 271.513 416.953 271.904 417.343L278.268 423.707ZM277.975 396V423H279.975V396H277.975Z" fill="#FCB23D"/>
<rect x="226.975" y="445" width="44" height="44" rx="2" fill="white" stroke="#FCB23D" stroke-width="4"/>
<path d="M233.505 473V461.364H237.869C238.763 461.364 239.513 461.53 240.119 461.864C240.729 462.197 241.189 462.655 241.499 463.239C241.814 463.818 241.971 464.477 241.971 465.216C241.971 465.962 241.814 466.625 241.499 467.205C241.185 467.784 240.721 468.241 240.107 468.574C239.494 468.903 238.738 469.068 237.84 469.068H234.948V467.335H237.556C238.079 467.335 238.507 467.244 238.84 467.062C239.174 466.881 239.42 466.631 239.579 466.312C239.742 465.994 239.823 465.629 239.823 465.216C239.823 464.803 239.742 464.439 239.579 464.125C239.42 463.811 239.172 463.566 238.835 463.392C238.501 463.214 238.071 463.125 237.545 463.125H235.613V473H233.505ZM253.365 461.364V473H251.49L246.007 465.074H245.91V473H243.802V461.364H245.688L251.166 469.295H251.268V461.364H253.365ZM263.457 465.08C263.362 464.773 263.231 464.498 263.065 464.256C262.902 464.009 262.705 463.799 262.474 463.625C262.247 463.451 261.985 463.32 261.69 463.233C261.394 463.142 261.072 463.097 260.724 463.097C260.099 463.097 259.542 463.254 259.053 463.568C258.565 463.883 258.18 464.345 257.9 464.955C257.624 465.561 257.485 466.299 257.485 467.17C257.485 468.049 257.624 468.794 257.9 469.403C258.177 470.013 258.561 470.477 259.053 470.795C259.546 471.11 260.118 471.267 260.769 471.267C261.36 471.267 261.872 471.153 262.303 470.926C262.739 470.699 263.074 470.377 263.309 469.96C263.544 469.54 263.661 469.047 263.661 468.483L264.139 468.557H260.98V466.909H265.701V468.307C265.701 469.303 265.489 470.165 265.065 470.892C264.641 471.619 264.057 472.18 263.315 472.574C262.572 472.964 261.72 473.159 260.758 473.159C259.686 473.159 258.745 472.919 257.934 472.438C257.127 471.953 256.497 471.265 256.042 470.375C255.591 469.481 255.366 468.42 255.366 467.193C255.366 466.254 255.499 465.415 255.764 464.676C256.033 463.938 256.408 463.311 256.889 462.795C257.37 462.277 257.934 461.883 258.582 461.614C259.23 461.341 259.934 461.205 260.695 461.205C261.339 461.205 261.94 461.299 262.497 461.489C263.053 461.674 263.548 461.939 263.98 462.284C264.415 462.629 264.773 463.038 265.053 463.511C265.334 463.985 265.517 464.508 265.605 465.08H263.457Z" fill="#FCB23D"/>
<rect x="286.975" y="445" width="44" height="44" rx="2" fill="white" stroke="#FCB23D" stroke-width="4"/>
<path d="M299.067 461.364H301.158V469.545C301.154 470.295 300.995 470.941 300.68 471.483C300.366 472.021 299.927 472.436 299.362 472.727C298.802 473.015 298.148 473.159 297.402 473.159C296.72 473.159 296.107 473.038 295.561 472.795C295.019 472.549 294.589 472.186 294.271 471.705C293.953 471.223 293.794 470.625 293.794 469.909H295.891C295.894 470.223 295.963 470.494 296.095 470.722C296.232 470.949 296.419 471.123 296.658 471.244C296.896 471.366 297.171 471.426 297.482 471.426C297.819 471.426 298.105 471.356 298.339 471.216C298.574 471.072 298.752 470.86 298.874 470.58C298.999 470.299 299.063 469.955 299.067 469.545V461.364ZM303.445 473V461.364H307.808C308.702 461.364 309.452 461.53 310.058 461.864C310.668 462.197 311.128 462.655 311.439 463.239C311.753 463.818 311.911 464.477 311.911 465.216C311.911 465.962 311.753 466.625 311.439 467.205C311.125 467.784 310.661 468.241 310.047 468.574C309.433 468.903 308.678 469.068 307.78 469.068H304.888V467.335H307.496C308.018 467.335 308.446 467.244 308.78 467.062C309.113 466.881 309.359 466.631 309.518 466.312C309.681 465.994 309.763 465.629 309.763 465.216C309.763 464.803 309.681 464.439 309.518 464.125C309.359 463.811 309.111 463.566 308.774 463.392C308.441 463.214 308.011 463.125 307.484 463.125H305.553V473H303.445ZM321.537 465.08C321.442 464.773 321.312 464.498 321.145 464.256C320.982 464.009 320.785 463.799 320.554 463.625C320.327 463.451 320.065 463.32 319.77 463.233C319.474 463.142 319.152 463.097 318.804 463.097C318.179 463.097 317.622 463.254 317.134 463.568C316.645 463.883 316.26 464.345 315.98 464.955C315.704 465.561 315.565 466.299 315.565 467.17C315.565 468.049 315.704 468.794 315.98 469.403C316.257 470.013 316.641 470.477 317.134 470.795C317.626 471.11 318.198 471.267 318.849 471.267C319.44 471.267 319.952 471.153 320.384 470.926C320.819 470.699 321.154 470.377 321.389 469.96C321.624 469.54 321.741 469.047 321.741 468.483L322.219 468.557H319.06V466.909H323.781V468.307C323.781 469.303 323.569 470.165 323.145 470.892C322.721 471.619 322.137 472.18 321.395 472.574C320.652 472.964 319.8 473.159 318.838 473.159C317.766 473.159 316.825 472.919 316.014 472.438C315.207 471.953 314.577 471.265 314.122 470.375C313.671 469.481 313.446 468.42 313.446 467.193C313.446 466.254 313.579 465.415 313.844 464.676C314.113 463.938 314.488 463.311 314.969 462.795C315.45 462.277 316.014 461.883 316.662 461.614C317.31 461.341 318.014 461.205 318.776 461.205C319.42 461.205 320.02 461.299 320.577 461.489C321.134 461.674 321.628 461.939 322.06 462.284C322.495 462.629 322.853 463.038 323.134 463.511C323.414 463.985 323.598 464.508 323.685 465.08H321.537Z" fill="#FCB23D"/>
<path d="M539.233 264.896C539.191 263.947 538.411 263.195 537.454 263.195H483.053L467.176 248.471C466.845 248.169 466.416 248 465.966 248H441.026C440.534 248 440.063 248.204 439.725 248.563L425.48 263.757C425.149 264.109 424.981 264.573 425.002 265.051L428.567 346.298C428.609 347.248 429.389 348 430.346 348H541.019C541.504 348 541.968 347.803 542.306 347.452C542.643 347.1 542.819 346.629 542.798 346.144L539.233 264.896Z" fill="#DA6992"/>
<path d="M534.353 277.426L430.627 280.872C429.642 280.907 428.876 281.729 428.904 282.714L430.929 343.718C430.964 344.702 431.787 345.469 432.771 345.441L536.498 341.995C537.482 341.96 538.249 341.137 538.221 340.153L536.196 279.149C536.16 278.157 535.338 277.391 534.353 277.426Z" fill="#E6E6E5"/>
<path d="M539.261 270.894L435.485 269.319C434.501 269.305 433.692 270.086 433.678 271.07L432.75 332.102C432.736 333.086 433.524 333.895 434.508 333.909L538.284 335.484C539.268 335.498 540.077 334.718 540.091 333.726L541.019 272.701C541.033 271.717 540.246 270.908 539.261 270.894Z" fill="#F3F3F3"/>
<path d="M544.654 274.424L441.617 261.971C440.639 261.852 439.753 262.548 439.634 263.525L432.314 324.122C432.195 325.099 432.891 325.985 433.868 326.104L536.906 338.557C537.883 338.676 538.769 337.98 538.888 337.003L546.208 276.407C546.328 275.429 545.632 274.543 544.654 274.424Z" fill="white"/>
<path d="M556.622 257.415C556.284 257.014 555.792 256.789 555.265 256.789H500.167C499.717 256.789 499.288 256.958 498.958 257.26L483.081 271.984H444.591C443.74 271.984 443.009 272.589 442.84 273.418L428.595 345.869C428.489 346.39 428.63 346.931 428.968 347.346C429.305 347.754 429.811 347.993 430.346 347.993H541.019C541.891 347.993 542.637 347.36 542.777 346.495L557.03 258.856C557.107 258.343 556.966 257.816 556.622 257.415Z" fill="#F27BAA"/>
<path d="M428.967 347.339C429.304 347.747 429.811 347.986 430.345 347.986H541.018C541.89 347.986 542.636 347.353 542.776 346.488L546.918 321.042L428.594 345.869C428.496 346.39 428.629 346.931 428.967 347.339Z" fill="#EB73A0"/>
<path d="M440.574 383.241C439.452 383.237 438.493 382.941 437.698 382.354C436.903 381.767 436.294 380.912 435.873 379.79C435.451 378.668 435.241 377.316 435.241 375.734C435.241 374.158 435.451 372.811 435.873 371.693C436.299 370.576 436.91 369.723 437.705 369.136C438.505 368.549 439.462 368.256 440.574 368.256C441.687 368.256 442.641 368.552 443.437 369.143C444.232 369.731 444.84 370.583 445.262 371.7C445.688 372.813 445.901 374.158 445.901 375.734C445.901 377.321 445.69 378.675 445.269 379.797C444.848 380.914 444.239 381.769 443.444 382.361C442.648 382.948 441.692 383.241 440.574 383.241ZM440.574 381.345C441.559 381.345 442.329 380.865 442.883 379.903C443.441 378.942 443.721 377.553 443.721 375.734C443.721 374.527 443.593 373.507 443.337 372.673C443.086 371.835 442.724 371.201 442.251 370.77C441.782 370.334 441.223 370.116 440.574 370.116C439.594 370.116 438.825 370.599 438.266 371.565C437.707 372.531 437.426 373.921 437.421 375.734C437.421 376.946 437.546 377.972 437.797 378.81C438.053 379.643 438.415 380.275 438.884 380.706C439.353 381.132 439.916 381.345 440.574 381.345ZM448.421 383V381.409L453.343 376.31C453.868 375.756 454.301 375.27 454.642 374.854C454.988 374.432 455.246 374.032 455.416 373.653C455.587 373.275 455.672 372.872 455.672 372.446C455.672 371.963 455.558 371.546 455.331 371.196C455.104 370.841 454.794 370.569 454.401 370.379C454.008 370.185 453.565 370.088 453.073 370.088C452.552 370.088 452.097 370.195 451.709 370.408C451.321 370.621 451.022 370.921 450.814 371.31C450.606 371.698 450.502 372.152 450.502 372.673H448.406C448.406 371.788 448.61 371.014 449.017 370.351C449.424 369.688 449.983 369.174 450.693 368.81C451.404 368.44 452.211 368.256 453.115 368.256C454.029 368.256 454.834 368.438 455.53 368.803C456.231 369.162 456.778 369.655 457.171 370.28C457.564 370.9 457.76 371.601 457.76 372.382C457.76 372.922 457.658 373.45 457.455 373.966C457.256 374.482 456.908 375.057 456.411 375.692C455.914 376.321 455.222 377.086 454.337 377.986L451.446 381.011V381.118H457.994V383H448.421ZM467.142 375.933V377.773H460.693V375.933H467.142ZM472.096 368.455V383H469.972V368.455H472.096ZM479.655 383.22C478.58 383.22 477.654 382.991 476.878 382.531C476.106 382.067 475.509 381.416 475.088 380.578C474.671 379.735 474.463 378.748 474.463 377.616C474.463 376.499 474.671 375.514 475.088 374.662C475.509 373.81 476.096 373.144 476.849 372.666C477.607 372.188 478.492 371.949 479.506 371.949C480.121 371.949 480.718 372.051 481.295 372.254C481.873 372.458 482.391 372.777 482.851 373.213C483.31 373.649 483.672 374.214 483.937 374.911C484.202 375.602 484.335 376.442 484.335 377.432V378.185H475.663V376.594H482.254C482.254 376.035 482.14 375.54 481.913 375.109C481.686 374.674 481.366 374.33 480.954 374.08C480.547 373.829 480.069 373.703 479.52 373.703C478.923 373.703 478.402 373.85 477.957 374.143C477.517 374.432 477.176 374.811 476.934 375.28C476.698 375.744 476.579 376.248 476.579 376.793V378.036C476.579 378.765 476.707 379.385 476.963 379.896C477.223 380.408 477.586 380.798 478.05 381.068C478.514 381.333 479.056 381.466 479.676 381.466C480.078 381.466 480.445 381.409 480.777 381.295C481.108 381.177 481.395 381.002 481.636 380.77C481.878 380.538 482.062 380.251 482.19 379.911L484.2 380.273C484.039 380.865 483.75 381.383 483.334 381.828C482.922 382.268 482.403 382.612 481.778 382.858C481.158 383.099 480.45 383.22 479.655 383.22ZM491.883 372.091V373.795H485.718V372.091H491.883ZM487.409 383V370.827C487.409 370.145 487.558 369.579 487.856 369.129C488.154 368.675 488.55 368.336 489.042 368.114C489.535 367.886 490.07 367.773 490.647 367.773C491.073 367.773 491.438 367.808 491.741 367.879C492.044 367.946 492.269 368.007 492.416 368.064L491.919 369.783C491.819 369.754 491.691 369.721 491.535 369.683C491.379 369.641 491.189 369.619 490.967 369.619C490.451 369.619 490.081 369.747 489.859 370.003C489.641 370.259 489.532 370.628 489.532 371.111V383H487.409ZM499.166 372.091V373.795H493.208V372.091H499.166ZM494.806 369.477H496.929V379.797C496.929 380.209 496.991 380.519 497.114 380.727C497.237 380.931 497.396 381.071 497.59 381.146C497.789 381.217 498.004 381.253 498.236 381.253C498.406 381.253 498.556 381.241 498.683 381.217C498.811 381.194 498.911 381.175 498.982 381.161L499.365 382.915C499.242 382.962 499.067 383.009 498.84 383.057C498.612 383.109 498.328 383.137 497.987 383.142C497.429 383.152 496.908 383.052 496.425 382.844C495.942 382.635 495.551 382.313 495.253 381.878C494.955 381.442 494.806 380.895 494.806 380.237V369.477ZM503.639 376.523V383H501.515V372.091H503.554V373.866H503.689C503.94 373.289 504.333 372.825 504.868 372.474C505.407 372.124 506.087 371.949 506.906 371.949C507.649 371.949 508.3 372.105 508.859 372.418C509.418 372.725 509.851 373.185 510.159 373.795C510.467 374.406 510.621 375.161 510.621 376.061V383H508.497V376.317C508.497 375.526 508.291 374.908 507.879 374.463C507.467 374.013 506.901 373.788 506.182 373.788C505.689 373.788 505.251 373.895 504.868 374.108C504.489 374.321 504.188 374.634 503.966 375.045C503.748 375.453 503.639 375.945 503.639 376.523ZM518.064 383.22C517.041 383.22 516.148 382.986 515.386 382.517C514.624 382.048 514.032 381.393 513.611 380.55C513.189 379.707 512.979 378.722 512.979 377.595C512.979 376.464 513.189 375.474 513.611 374.626C514.032 373.779 514.624 373.121 515.386 372.652C516.148 372.183 517.041 371.949 518.064 371.949C519.086 371.949 519.979 372.183 520.741 372.652C521.504 373.121 522.095 373.779 522.517 374.626C522.938 375.474 523.149 376.464 523.149 377.595C523.149 378.722 522.938 379.707 522.517 380.55C522.095 381.393 521.504 382.048 520.741 382.517C519.979 382.986 519.086 383.22 518.064 383.22ZM518.071 381.438C518.734 381.438 519.283 381.262 519.719 380.912C520.154 380.562 520.476 380.095 520.684 379.513C520.898 378.93 521.004 378.289 521.004 377.588C521.004 376.892 520.898 376.253 520.684 375.67C520.476 375.083 520.154 374.612 519.719 374.257C519.283 373.902 518.734 373.724 518.071 373.724C517.403 373.724 516.849 373.902 516.409 374.257C515.973 374.612 515.649 375.083 515.436 375.67C515.228 376.253 515.123 376.892 515.123 377.588C515.123 378.289 515.228 378.93 515.436 379.513C515.649 380.095 515.973 380.562 516.409 380.912C516.849 381.262 517.403 381.438 518.071 381.438ZM532.43 378.476V372.091H534.561V383H532.472V381.111H532.359C532.108 381.693 531.705 382.179 531.151 382.567C530.602 382.95 529.918 383.142 529.099 383.142C528.398 383.142 527.778 382.988 527.238 382.68C526.703 382.368 526.282 381.906 525.974 381.295C525.671 380.685 525.519 379.929 525.519 379.03V372.091H527.643V378.774C527.643 379.518 527.849 380.109 528.261 380.55C528.673 380.99 529.208 381.21 529.866 381.21C530.264 381.21 530.659 381.111 531.052 380.912C531.45 380.713 531.779 380.412 532.039 380.01C532.304 379.607 532.435 379.096 532.43 378.476ZM539.537 376.523V383H537.414V372.091H539.452V373.866H539.587C539.838 373.289 540.231 372.825 540.766 372.474C541.306 372.124 541.985 371.949 542.805 371.949C543.548 371.949 544.199 372.105 544.758 372.418C545.316 372.725 545.75 373.185 546.057 373.795C546.365 374.406 546.519 375.161 546.519 376.061V383H544.395V376.317C544.395 375.526 544.189 374.908 543.778 374.463C543.366 374.013 542.8 373.788 542.08 373.788C541.588 373.788 541.15 373.895 540.766 374.108C540.387 374.321 540.087 374.634 539.864 375.045C539.646 375.453 539.537 375.945 539.537 376.523Z" fill="black"/>
<path d="M490.318 423.707C490.709 424.098 491.342 424.098 491.732 423.707L498.096 417.343C498.487 416.953 498.487 416.319 498.096 415.929C497.706 415.538 497.073 415.538 496.682 415.929L491.025 421.586L485.369 415.929C484.978 415.538 484.345 415.538 483.954 415.929C483.564 416.319 483.564 416.953 483.954 417.343L490.318 423.707ZM490.025 396V423H492.025V396H490.025Z" fill="#F27BAA"/>
<rect x="439.025" y="445" width="44" height="44" rx="2" fill="white" stroke="#F27BAA" stroke-width="4"/>
<path d="M445.556 473V461.364H449.92C450.814 461.364 451.564 461.53 452.17 461.864C452.779 462.197 453.24 462.655 453.55 463.239C453.865 463.818 454.022 464.477 454.022 465.216C454.022 465.962 453.865 466.625 453.55 467.205C453.236 467.784 452.772 468.241 452.158 468.574C451.545 468.903 450.789 469.068 449.891 469.068H446.999V467.335H449.607C450.13 467.335 450.558 467.244 450.891 467.062C451.224 466.881 451.471 466.631 451.63 466.312C451.793 465.994 451.874 465.629 451.874 465.216C451.874 464.803 451.793 464.439 451.63 464.125C451.471 463.811 451.223 463.566 450.885 463.392C450.552 463.214 450.122 463.125 449.596 463.125H447.664V473H445.556ZM465.415 461.364V473H463.54L458.057 465.074H457.961V473H455.853V461.364H457.739L463.216 469.295H463.319V461.364H465.415ZM475.508 465.08C475.413 464.773 475.282 464.498 475.116 464.256C474.953 464.009 474.756 463.799 474.525 463.625C474.297 463.451 474.036 463.32 473.741 463.233C473.445 463.142 473.123 463.097 472.775 463.097C472.15 463.097 471.593 463.254 471.104 463.568C470.616 463.883 470.231 464.345 469.951 464.955C469.674 465.561 469.536 466.299 469.536 467.17C469.536 468.049 469.674 468.794 469.951 469.403C470.227 470.013 470.612 470.477 471.104 470.795C471.597 471.11 472.169 471.267 472.82 471.267C473.411 471.267 473.922 471.153 474.354 470.926C474.79 470.699 475.125 470.377 475.36 469.96C475.595 469.54 475.712 469.047 475.712 468.483L476.189 468.557H473.03V466.909H477.752V468.307C477.752 469.303 477.54 470.165 477.116 470.892C476.691 471.619 476.108 472.18 475.366 472.574C474.623 472.964 473.771 473.159 472.809 473.159C471.737 473.159 470.796 472.919 469.985 472.438C469.178 471.953 468.547 471.265 468.093 470.375C467.642 469.481 467.417 468.42 467.417 467.193C467.417 466.254 467.549 465.415 467.814 464.676C468.083 463.938 468.458 463.311 468.939 462.795C469.421 462.277 469.985 461.883 470.633 461.614C471.28 461.341 471.985 461.205 472.746 461.205C473.39 461.205 473.991 461.299 474.547 461.489C475.104 461.674 475.599 461.939 476.03 462.284C476.466 462.629 476.824 463.038 477.104 463.511C477.385 463.985 477.568 464.508 477.655 465.08H475.508Z" fill="#F27BAA"/>
<rect x="499.025" y="445" width="44" height="44" rx="2" fill="white" stroke="#F27BAA" stroke-width="4"/>
<path d="M511.067 461.364H513.158V469.545C513.154 470.295 512.995 470.941 512.68 471.483C512.366 472.021 511.927 472.436 511.362 472.727C510.802 473.015 510.148 473.159 509.402 473.159C508.72 473.159 508.107 473.038 507.561 472.795C507.019 472.549 506.589 472.186 506.271 471.705C505.953 471.223 505.794 470.625 505.794 469.909H507.891C507.894 470.223 507.963 470.494 508.095 470.722C508.232 470.949 508.419 471.123 508.658 471.244C508.896 471.366 509.171 471.426 509.482 471.426C509.819 471.426 510.105 471.356 510.339 471.216C510.574 471.072 510.752 470.86 510.874 470.58C510.999 470.299 511.063 469.955 511.067 469.545V461.364ZM515.445 473V461.364H519.808C520.702 461.364 521.452 461.53 522.058 461.864C522.668 462.197 523.128 462.655 523.439 463.239C523.753 463.818 523.911 464.477 523.911 465.216C523.911 465.962 523.753 466.625 523.439 467.205C523.125 467.784 522.661 468.241 522.047 468.574C521.433 468.903 520.678 469.068 519.78 469.068H516.888V467.335H519.496C520.018 467.335 520.446 467.244 520.78 467.062C521.113 466.881 521.359 466.631 521.518 466.312C521.681 465.994 521.763 465.629 521.763 465.216C521.763 464.803 521.681 464.439 521.518 464.125C521.359 463.811 521.111 463.566 520.774 463.392C520.441 463.214 520.011 463.125 519.484 463.125H517.553V473H515.445ZM533.537 465.08C533.442 464.773 533.312 464.498 533.145 464.256C532.982 464.009 532.785 463.799 532.554 463.625C532.327 463.451 532.065 463.32 531.77 463.233C531.474 463.142 531.152 463.097 530.804 463.097C530.179 463.097 529.622 463.254 529.134 463.568C528.645 463.883 528.26 464.345 527.98 464.955C527.704 465.561 527.565 466.299 527.565 467.17C527.565 468.049 527.704 468.794 527.98 469.403C528.257 470.013 528.641 470.477 529.134 470.795C529.626 471.11 530.198 471.267 530.849 471.267C531.44 471.267 531.952 471.153 532.384 470.926C532.819 470.699 533.154 470.377 533.389 469.96C533.624 469.54 533.741 469.047 533.741 468.483L534.219 468.557H531.06V466.909H535.781V468.307C535.781 469.303 535.569 470.165 535.145 470.892C534.721 471.619 534.137 472.18 533.395 472.574C532.652 472.964 531.8 473.159 530.838 473.159C529.766 473.159 528.825 472.919 528.014 472.438C527.207 471.953 526.577 471.265 526.122 470.375C525.671 469.481 525.446 468.42 525.446 467.193C525.446 466.254 525.579 465.415 525.844 464.676C526.113 463.938 526.488 463.311 526.969 462.795C527.45 462.277 528.014 461.883 528.662 461.614C529.31 461.341 530.014 461.205 530.776 461.205C531.42 461.205 532.02 461.299 532.577 461.489C533.134 461.674 533.628 461.939 534.06 462.284C534.495 462.629 534.853 463.038 535.134 463.511C535.414 463.985 535.598 464.508 535.685 465.08H533.537Z" fill="#F27BAA"/>
<path d="M751.283 264.903C751.241 263.954 750.46 263.202 749.504 263.202H695.102L679.226 248.478C678.895 248.176 678.459 248 678.016 248H653.076C652.584 248 652.113 248.204 651.775 248.563L637.53 263.757C637.199 264.109 637.03 264.573 637.052 265.051L640.616 346.291C640.659 347.241 641.439 347.993 642.395 347.993H753.069C753.554 347.993 754.018 347.796 754.356 347.445C754.693 347.093 754.869 346.622 754.848 346.137L751.283 264.903Z" fill="#929FA6"/>
<path d="M746.403 277.433L642.677 280.879C641.692 280.914 640.926 281.736 640.954 282.721L642.979 343.725C643.007 344.709 643.837 345.476 644.821 345.448L748.548 342.002C749.532 341.967 750.299 341.144 750.27 340.16L748.245 279.156C748.21 278.172 747.388 277.398 746.403 277.433Z" fill="#E6E6E5"/>
<path d="M751.311 270.901L647.535 269.326C646.551 269.312 645.742 270.1 645.728 271.077L644.8 332.109C644.786 333.093 645.573 333.902 646.551 333.916L750.327 335.491C751.311 335.505 752.12 334.725 752.134 333.74L753.062 272.708C753.083 271.724 752.295 270.915 751.311 270.901Z" fill="#F3F3F3"/>
<path d="M756.704 274.431L653.666 261.985C652.689 261.866 651.803 262.562 651.684 263.539L644.364 324.136C644.244 325.113 644.941 325.999 645.918 326.118L748.955 338.571C749.933 338.69 750.819 337.994 750.938 337.017L758.258 276.421C758.377 275.436 757.681 274.55 756.704 274.431Z" fill="white"/>
<path d="M768.672 257.429C768.334 257.028 767.842 256.803 767.315 256.803H712.217C711.767 256.803 711.338 256.972 711.008 257.281L695.131 272.005H656.641C655.79 272.005 655.059 272.61 654.89 273.439L640.645 345.877C640.539 346.397 640.68 346.938 641.017 347.353C641.355 347.761 641.861 348 642.396 348H753.069C753.941 348 754.686 347.367 754.827 346.502L769.08 258.863C769.157 258.35 769.016 257.823 768.672 257.429Z" fill="#BDCCD4"/>
<path d="M641.017 347.346C641.354 347.754 641.86 347.993 642.395 347.993H753.068C753.94 347.993 754.686 347.36 754.826 346.495L758.961 321.042L640.644 345.877C640.545 346.397 640.679 346.938 641.017 347.346Z" fill="#ABB8C0"/>
<path d="M660.349 383.241C659.227 383.237 658.268 382.941 657.472 382.354C656.677 381.767 656.069 380.912 655.647 379.79C655.226 378.668 655.015 377.316 655.015 375.734C655.015 374.158 655.226 372.811 655.647 371.693C656.073 370.576 656.684 369.723 657.479 369.136C658.28 368.549 659.236 368.256 660.349 368.256C661.461 368.256 662.416 368.552 663.211 369.143C664.006 369.731 664.615 370.583 665.036 371.7C665.462 372.813 665.676 374.158 665.676 375.734C665.676 377.321 665.465 378.675 665.043 379.797C664.622 380.914 664.014 381.769 663.218 382.361C662.423 382.948 661.466 383.241 660.349 383.241ZM660.349 381.345C661.334 381.345 662.103 380.865 662.657 379.903C663.216 378.942 663.495 377.553 663.495 375.734C663.495 374.527 663.367 373.507 663.112 372.673C662.861 371.835 662.498 371.201 662.025 370.77C661.556 370.334 660.997 370.116 660.349 370.116C659.369 370.116 658.599 370.599 658.041 371.565C657.482 372.531 657.2 373.921 657.195 375.734C657.195 376.946 657.321 377.972 657.572 378.81C657.828 379.643 658.19 380.275 658.658 380.706C659.127 381.132 659.691 381.345 660.349 381.345ZM669.9 372.091L672.307 376.338L674.736 372.091H677.059L673.657 377.545L677.087 383H674.765L672.307 378.923L669.857 383H667.527L670.922 377.545L667.57 372.091H669.9ZM685.217 375.933V377.773H678.769V375.933H685.217ZM689.275 372.091L691.682 376.338L694.111 372.091H696.434L693.032 377.545L696.462 383H694.14L691.682 378.923L689.232 383H686.902L690.297 377.545L686.945 372.091H689.275ZM700.29 372.091L702.698 376.338L705.127 372.091H707.449L704.047 377.545L707.478 383H705.155L702.698 378.923L700.248 383H697.918L701.313 377.545L697.961 372.091H700.29ZM711.306 372.091L713.714 376.338L716.142 372.091H718.465L715.063 377.545L718.493 383H716.171L713.714 378.923L711.263 383H708.934L712.329 377.545L708.976 372.091H711.306ZM722.321 372.091L724.729 376.338L727.158 372.091H729.481L726.079 377.545L729.509 383H727.187L724.729 378.923L722.279 383H719.949L723.344 377.545L719.992 372.091H722.321ZM733.337 372.091L735.745 376.338L738.174 372.091H740.496L737.094 377.545L740.525 383H738.202L735.745 378.923L733.294 383H730.965L734.36 377.545L731.008 372.091H733.337ZM744.353 372.091L746.76 376.338L749.189 372.091H751.512L748.11 377.545L751.54 383H749.218L746.76 378.923L744.31 383H741.981L745.375 377.545L742.023 372.091H744.353Z" fill="black"/>
<path d="M702.368 423.707C702.759 424.098 703.392 424.098 703.782 423.707L710.146 417.343C710.537 416.953 710.537 416.319 710.146 415.929C709.756 415.538 709.123 415.538 708.732 415.929L703.075 421.586L697.418 415.929C697.028 415.538 696.395 415.538 696.004 415.929C695.614 416.319 695.614 416.953 696.004 417.343L702.368 423.707ZM702.075 396V423H704.075V396H702.075Z" fill="#BDCCD4"/>
<rect x="651.075" y="445" width="44" height="44" rx="2" fill="white" stroke="#BDCCD4" stroke-width="4"/>
<path d="M657.606 473V461.364H661.969C662.863 461.364 663.613 461.53 664.219 461.864C664.829 462.197 665.289 462.655 665.6 463.239C665.914 463.818 666.072 464.477 666.072 465.216C666.072 465.962 665.914 466.625 665.6 467.205C665.286 467.784 664.822 468.241 664.208 468.574C663.594 468.903 662.839 469.068 661.941 469.068H659.049V467.335H661.657C662.18 467.335 662.608 467.244 662.941 467.062C663.274 466.881 663.521 466.631 663.68 466.312C663.842 465.994 663.924 465.629 663.924 465.216C663.924 464.803 663.842 464.439 663.68 464.125C663.521 463.811 663.272 463.566 662.935 463.392C662.602 463.214 662.172 463.125 661.646 463.125H659.714V473H657.606ZM677.465 461.364V473H675.59L670.107 465.074H670.011V473H667.903V461.364H669.789L675.266 469.295H675.369V461.364H677.465ZM687.557 465.08C687.463 464.773 687.332 464.498 687.165 464.256C687.003 464.009 686.806 463.799 686.574 463.625C686.347 463.451 686.086 463.32 685.79 463.233C685.495 463.142 685.173 463.097 684.824 463.097C684.199 463.097 683.643 463.254 683.154 463.568C682.665 463.883 682.281 464.345 682.001 464.955C681.724 465.561 681.586 466.299 681.586 467.17C681.586 468.049 681.724 468.794 682.001 469.403C682.277 470.013 682.662 470.477 683.154 470.795C683.646 471.11 684.218 471.267 684.87 471.267C685.461 471.267 685.972 471.153 686.404 470.926C686.84 470.699 687.175 470.377 687.41 469.96C687.645 469.54 687.762 469.047 687.762 468.483L688.239 468.557H685.08V466.909H689.802V468.307C689.802 469.303 689.59 470.165 689.165 470.892C688.741 471.619 688.158 472.18 687.415 472.574C686.673 472.964 685.821 473.159 684.859 473.159C683.787 473.159 682.845 472.919 682.035 472.438C681.228 471.953 680.597 471.265 680.143 470.375C679.692 469.481 679.467 468.42 679.467 467.193C679.467 466.254 679.599 465.415 679.864 464.676C680.133 463.938 680.508 463.311 680.989 462.795C681.47 462.277 682.035 461.883 682.682 461.614C683.33 461.341 684.035 461.205 684.796 461.205C685.44 461.205 686.04 461.299 686.597 461.489C687.154 461.674 687.648 461.939 688.08 462.284C688.516 462.629 688.874 463.038 689.154 463.511C689.434 463.985 689.618 464.508 689.705 465.08H687.557Z" fill="#BDCCD4"/>
<rect x="711.075" y="445" width="44" height="44" rx="2" fill="white" stroke="#BDCCD4" stroke-width="4"/>
<path d="M723.067 461.364H725.158V469.545C725.154 470.295 724.995 470.941 724.68 471.483C724.366 472.021 723.927 472.436 723.362 472.727C722.802 473.015 722.148 473.159 721.402 473.159C720.72 473.159 720.107 473.038 719.561 472.795C719.019 472.549 718.589 472.186 718.271 471.705C717.953 471.223 717.794 470.625 717.794 469.909H719.891C719.894 470.223 719.963 470.494 720.095 470.722C720.232 470.949 720.419 471.123 720.658 471.244C720.896 471.366 721.171 471.426 721.482 471.426C721.819 471.426 722.105 471.356 722.339 471.216C722.574 471.072 722.752 470.86 722.874 470.58C722.999 470.299 723.063 469.955 723.067 469.545V461.364ZM727.445 473V461.364H731.808C732.702 461.364 733.452 461.53 734.058 461.864C734.668 462.197 735.128 462.655 735.439 463.239C735.753 463.818 735.911 464.477 735.911 465.216C735.911 465.962 735.753 466.625 735.439 467.205C735.125 467.784 734.661 468.241 734.047 468.574C733.433 468.903 732.678 469.068 731.78 469.068H728.888V467.335H731.496C732.018 467.335 732.446 467.244 732.78 467.062C733.113 466.881 733.359 466.631 733.518 466.312C733.681 465.994 733.763 465.629 733.763 465.216C733.763 464.803 733.681 464.439 733.518 464.125C733.359 463.811 733.111 463.566 732.774 463.392C732.441 463.214 732.011 463.125 731.484 463.125H729.553V473H727.445ZM745.537 465.08C745.442 464.773 745.312 464.498 745.145 464.256C744.982 464.009 744.785 463.799 744.554 463.625C744.327 463.451 744.065 463.32 743.77 463.233C743.474 463.142 743.152 463.097 742.804 463.097C742.179 463.097 741.622 463.254 741.134 463.568C740.645 463.883 740.26 464.345 739.98 464.955C739.704 465.561 739.565 466.299 739.565 467.17C739.565 468.049 739.704 468.794 739.98 469.403C740.257 470.013 740.641 470.477 741.134 470.795C741.626 471.11 742.198 471.267 742.849 471.267C743.44 471.267 743.952 471.153 744.384 470.926C744.819 470.699 745.154 470.377 745.389 469.96C745.624 469.54 745.741 469.047 745.741 468.483L746.219 468.557H743.06V466.909H747.781V468.307C747.781 469.303 747.569 470.165 747.145 470.892C746.721 471.619 746.137 472.18 745.395 472.574C744.652 472.964 743.8 473.159 742.838 473.159C741.766 473.159 740.825 472.919 740.014 472.438C739.207 471.953 738.577 471.265 738.122 470.375C737.671 469.481 737.446 468.42 737.446 467.193C737.446 466.254 737.579 465.415 737.844 464.676C738.113 463.938 738.488 463.311 738.969 462.795C739.45 462.277 740.014 461.883 740.662 461.614C741.31 461.341 742.014 461.205 742.776 461.205C743.42 461.205 744.02 461.299 744.577 461.489C745.134 461.674 745.628 461.939 746.06 462.284C746.495 462.629 746.853 463.038 747.134 463.511C747.414 463.985 747.598 464.508 747.685 465.08H745.537Z" fill="#BDCCD4"/>
</svg>
