<svg width="108" height="53" viewBox="0 0 108 53" fill="none" xmlns="http://www.w3.org/2000/svg">
<rect x="0.5" width="107" height="53" rx="8" fill="#1A2B81"/>
<path d="M25.5447 17.5455H28.7067V28.9489C28.7067 30.1989 28.4112 31.2983 27.8203 32.2472C27.2351 33.196 26.4112 33.9375 25.3487 34.4716C24.2862 35 23.0447 35.2642 21.6243 35.2642C20.1982 35.2642 18.9538 35 17.8913 34.4716C16.8288 33.9375 16.005 33.196 15.4197 32.2472C14.8345 31.2983 14.5419 30.1989 14.5419 28.9489V17.5455H17.7038V28.6847C17.7038 29.4119 17.8629 30.0597 18.1811 30.6278C18.505 31.196 18.9595 31.642 19.5447 31.9659C20.13 32.2841 20.8232 32.4432 21.6243 32.4432C22.4254 32.4432 23.1186 32.2841 23.7038 31.9659C24.2947 31.642 24.7493 31.196 25.0675 30.6278C25.3857 30.0597 25.5447 29.4119 25.5447 28.6847V17.5455ZM32.0071 39.9091V21.9091H35.0412V24.0739H35.2202C35.3793 23.7557 35.6037 23.4176 35.8935 23.0597C36.1832 22.696 36.5753 22.3864 37.0696 22.1307C37.5639 21.8693 38.1946 21.7386 38.9616 21.7386C39.973 21.7386 40.8849 21.9972 41.6974 22.5142C42.5156 23.0256 43.1634 23.7841 43.6406 24.7898C44.1236 25.7898 44.3651 27.017 44.3651 28.4716C44.3651 29.9091 44.1293 31.1307 43.6577 32.1364C43.1861 33.142 42.544 33.9091 41.7315 34.4375C40.919 34.9659 39.9986 35.2301 38.9702 35.2301C38.2202 35.2301 37.598 35.1051 37.1037 34.8551C36.6094 34.6051 36.2116 34.304 35.9105 33.9517C35.6151 33.5937 35.3849 33.2557 35.2202 32.9375H35.0923V39.9091H32.0071ZM35.0327 28.4545C35.0327 29.3011 35.152 30.0426 35.3906 30.679C35.6349 31.3153 35.9844 31.8125 36.4389 32.1705C36.8991 32.5227 37.456 32.6989 38.1094 32.6989C38.7912 32.6989 39.3622 32.517 39.8224 32.1534C40.2827 31.7841 40.6293 31.2812 40.8622 30.6449C41.1009 30.0028 41.2202 29.2727 41.2202 28.4545C41.2202 27.642 41.1037 26.9205 40.8707 26.2898C40.6378 25.6591 40.2912 25.1648 39.831 24.8068C39.3707 24.4489 38.7969 24.2699 38.1094 24.2699C37.4503 24.2699 36.8906 24.4432 36.4304 24.7898C35.9702 25.1364 35.6207 25.6222 35.3821 26.2472C35.1491 26.8722 35.0327 27.608 35.0327 28.4545ZM50.0923 17.5455V35H47.0071V17.5455H50.0923ZM58.9751 35.2557C57.6967 35.2557 56.5888 34.9744 55.6513 34.4119C54.7138 33.8494 53.9865 33.0625 53.4695 32.0511C52.9581 31.0398 52.7024 29.858 52.7024 28.5057C52.7024 27.1534 52.9581 25.9687 53.4695 24.9517C53.9865 23.9347 54.7138 23.1449 55.6513 22.5824C56.5888 22.0199 57.6967 21.7386 58.9751 21.7386C60.2536 21.7386 61.3615 22.0199 62.299 22.5824C63.2365 23.1449 63.9609 23.9347 64.4723 24.9517C64.9893 25.9687 65.2479 27.1534 65.2479 28.5057C65.2479 29.858 64.9893 31.0398 64.4723 32.0511C63.9609 33.0625 63.2365 33.8494 62.299 34.4119C61.3615 34.9744 60.2536 35.2557 58.9751 35.2557ZM58.9922 32.7841C59.6854 32.7841 60.2649 32.5937 60.7308 32.2131C61.1967 31.8267 61.5433 31.3097 61.7706 30.6619C62.0036 30.0142 62.12 29.2926 62.12 28.4972C62.12 27.696 62.0036 26.9716 61.7706 26.3239C61.5433 25.6705 61.1967 25.1506 60.7308 24.7642C60.2649 24.3778 59.6854 24.1847 58.9922 24.1847C58.282 24.1847 57.6911 24.3778 57.2195 24.7642C56.7536 25.1506 56.4041 25.6705 56.1712 26.3239C55.9439 26.9716 55.8303 27.696 55.8303 28.4972C55.8303 29.2926 55.9439 30.0142 56.1712 30.6619C56.4041 31.3097 56.7536 31.8267 57.2195 32.2131C57.6911 32.5937 58.282 32.7841 58.9922 32.7841ZM71.6335 35.2642C70.804 35.2642 70.0568 35.1165 69.392 34.821C68.733 34.5199 68.2102 34.0767 67.8239 33.4915C67.4432 32.9062 67.2528 32.1847 67.2528 31.3267C67.2528 30.5881 67.3892 29.9773 67.6619 29.4943C67.9347 29.0114 68.3068 28.625 68.7784 28.3352C69.25 28.0455 69.7813 27.8267 70.3722 27.679C70.9688 27.5256 71.5852 27.4148 72.2216 27.3466C72.9886 27.267 73.6108 27.196 74.0881 27.1335C74.5653 27.0653 74.9119 26.9631 75.1278 26.8267C75.3494 26.6847 75.4602 26.4659 75.4602 26.1705V26.1193C75.4602 25.4773 75.2699 24.9801 74.8892 24.6278C74.5085 24.2756 73.9602 24.0994 73.2443 24.0994C72.4886 24.0994 71.8892 24.2642 71.446 24.5938C71.0085 24.9233 70.7131 25.3125 70.5597 25.7614L67.679 25.3523C67.9063 24.5568 68.2813 23.892 68.804 23.358C69.3267 22.8182 69.9659 22.4148 70.7216 22.1477C71.4773 21.875 72.3125 21.7386 73.2273 21.7386C73.858 21.7386 74.4858 21.8125 75.1108 21.9602C75.7358 22.108 76.3068 22.3523 76.8239 22.6932C77.3409 23.0284 77.7557 23.4858 78.0682 24.0653C78.3864 24.6449 78.5455 25.3693 78.5455 26.2386V35H75.5795V33.2017H75.4773C75.2898 33.5653 75.0256 33.9062 74.6847 34.2244C74.3494 34.5369 73.9261 34.7898 73.4148 34.983C72.9091 35.1705 72.3153 35.2642 71.6335 35.2642ZM72.4347 32.9972C73.054 32.9972 73.5909 32.875 74.0455 32.6307C74.5 32.3807 74.8494 32.0511 75.0938 31.642C75.3438 31.233 75.4688 30.7869 75.4688 30.304V28.7614C75.3722 28.8409 75.2074 28.9148 74.9744 28.983C74.7472 29.0511 74.4915 29.1108 74.2074 29.1619C73.9233 29.2131 73.642 29.2585 73.3636 29.2983C73.0852 29.3381 72.8438 29.3722 72.6392 29.4006C72.179 29.4631 71.767 29.5653 71.4034 29.7074C71.0398 29.8494 70.7528 30.0483 70.5426 30.304C70.3324 30.554 70.2273 30.8778 70.2273 31.2756C70.2273 31.8438 70.4347 32.2727 70.8494 32.5625C71.2642 32.8523 71.7926 32.9972 72.4347 32.9972ZM86.5057 35.2301C85.4773 35.2301 84.5568 34.9659 83.7443 34.4375C82.9318 33.9091 82.2898 33.142 81.8182 32.1364C81.3466 31.1307 81.1108 29.9091 81.1108 28.4716C81.1108 27.017 81.3494 25.7898 81.8267 24.7898C82.3097 23.7841 82.9602 23.0256 83.7784 22.5142C84.5966 21.9972 85.5085 21.7386 86.5142 21.7386C87.2813 21.7386 87.9119 21.8693 88.4062 22.1307C88.9006 22.3864 89.2926 22.696 89.5824 23.0597C89.8722 23.4176 90.0966 23.7557 90.2557 24.0739H90.3835V17.5455H93.4773V35H90.4432V32.9375H90.2557C90.0966 33.2557 89.8665 33.5937 89.5653 33.9517C89.2642 34.304 88.8665 34.6051 88.3722 34.8551C87.8778 35.1051 87.2557 35.2301 86.5057 35.2301ZM87.3665 32.6989C88.0199 32.6989 88.5767 32.5227 89.0369 32.1705C89.4972 31.8125 89.8466 31.3153 90.0852 30.679C90.3239 30.0426 90.4432 29.3011 90.4432 28.4545C90.4432 27.608 90.3239 26.8722 90.0852 26.2472C89.8523 25.6222 89.5057 25.1364 89.0455 24.7898C88.5909 24.4432 88.0313 24.2699 87.3665 24.2699C86.679 24.2699 86.1051 24.4489 85.6449 24.8068C85.1847 25.1648 84.8381 25.6591 84.6051 26.2898C84.3722 26.9205 84.2557 27.642 84.2557 28.4545C84.2557 29.2727 84.3722 30.0028 84.6051 30.6449C84.8438 31.2812 85.1932 31.7841 85.6534 32.1534C86.1193 32.517 86.6903 32.6989 87.3665 32.6989Z" fill="white"/>
</svg>
