<svg xmlns="http://www.w3.org/2000/svg" xmlns:xlink="http://www.w3.org/1999/xlink" width="195" height="100.5" viewBox="0 0 195 100.5">
  <defs>
    <clipPath id="clip-path">
      <rect id="Rectangle_703" data-name="Rectangle 703" width="184.805" height="62.923" fill="#fff" stroke="rgba(0,0,0,0)" stroke-miterlimit="10" stroke-width="1"/>
    </clipPath>
  </defs>
  <g id="Group_282" data-name="Group 282" transform="translate(-239 -40.5)">
    <g id="Group_12" data-name="Group 12" transform="translate(244 40.5)">
      <g id="Group_10" data-name="Group 10" clip-path="url(#clip-path)">
        <path id="Path_404" data-name="Path 404" d="M35.586,2.552C26.4-2.1,16-.453,9.5,8.029a57.163,57.163,0,0,0-4.034,5.743c-6.846,11.657-7.313,23.624-1.1,35.7,5.587,10.861,14.884,14.1,25.608,11.633C43.468,58,50.306,43.51,50.3,29.523A38.1,38.1,0,0,0,47.56,14.984,24.777,24.777,0,0,0,35.586,2.552M29.795,30.2c-.189,2.9-1.336,6.323-3.568,8.165a4.591,4.591,0,0,1-7.386-1.958c-1.113-2.865-.633-6.926.613-9.669,1.317-2.9,4.542-6.192,7.675-3.892,2.069,1.519,2.826,4.9,2.666,7.354" transform="translate(0 -0.001)" fill="#fff" stroke="rgba(0,0,0,0)" stroke-miterlimit="10" stroke-width="1"/>
        <path id="Path_405" data-name="Path 405" d="M579.434,28.224a24.215,24.215,0,0,0-8.876-15.62,37.054,37.054,0,0,0-22.622-8.281c-3.034-.146-5.955.187-8.527,2.058-1.991,1.449-3.429,3.281-3.283,5.977.143,2.63.418,5.253.619,7.88.306,4,.824,7.993.842,11.991.025,5.847-.3,11.7-.5,17.545a13.209,13.209,0,0,0,7.567,13,22.375,22.375,0,0,0,29.161-7.139c5.779-8.283,7.2-17.551,5.618-27.411m-21.2,12.309c-2.154.945-3.408.258-3.636-2.148-.139-1.468-.275-6.5-.289-7.524-.036-2.686.529-3.29,3.081-2.742a12.494,12.494,0,0,1,3.909,1.642,3.633,3.633,0,0,1,1.38,2.145,7.846,7.846,0,0,1-4.446,8.625" transform="translate(-395.233 -3.165)" fill="#fff" stroke="rgba(0,0,0,0)" stroke-miterlimit="10" stroke-width="1"/>
        <path id="Path_406" data-name="Path 406" d="M228.953,28.892a82.7,82.7,0,0,0-9.273-1.385,24.436,24.436,0,0,1-4.608-.765c-3.87-1.366-4.222-3.97-.747-7.19a8.064,8.064,0,0,0,4.958,4.827,20.167,20.167,0,0,0,11.8.441,8.479,8.479,0,0,0,4.742-2.943,7.791,7.791,0,0,0,.275-9.36,15.074,15.074,0,0,0-11.449-6.8,49.4,49.4,0,0,0-6.884-.059,26.519,26.519,0,0,0-18.106,8.038,17.36,17.36,0,0,0-5.2,12.518A12.572,12.572,0,0,0,206.82,38.794c3.364.055,6.732.484,10.093.6a14.272,14.272,0,0,1,4.6.8c2.5.971,2.145,4.045,1.345,5.079-2.572,3.214-7.6,2.535-9.55.493-3.523-3.744-12.239-4.148-17.191-1.209-3.467,2.058-4.483,5.124-3.106,9.02a17.048,17.048,0,0,0,6.31,8.183c10.229,7.456,25.016,4.743,33.443-2.14,5.689-4.647,7.082-10.991,6.607-17.939-.436-6.385-4.18-11.134-10.421-12.787" transform="translate(-141.856 -4.103)" fill="#fff" stroke="rgba(0,0,0,0)" stroke-miterlimit="10" stroke-width="1"/>
        <path id="Path_407" data-name="Path 407" d="M411.78,2.751c-7.1-1.534-14.3-1.188-21.476-.563a16.682,16.682,0,0,0-3.512.734c-4.507,1.413-5.469,3.354-5.121,8.048.521,7.033,1.542,14.054.525,21.16a135.91,135.91,0,0,0-1.346,15.038,38.952,38.952,0,0,0,1.039,9.221,8.913,8.913,0,0,0,5.306,6.405,13.813,13.813,0,0,0,10.851.451c3.437-1.281,4.857-3.836,4.946-7.51a19.08,19.08,0,0,0-1.3-6.19c-.559-1.71-.731-3.3-1.681-4.97a.132.132,0,0,1,.148-.194c1.634.436,3.312.726,4.934,1.2,4.592,1.35,7.984-.024,10.232-4.217A16.728,16.728,0,0,0,416.9,31.223a3.585,3.585,0,0,0-2.853-3.337,42.78,42.78,0,0,0-7.075-.537c-1.785-.022-3.572.383-5.36.393-1.565.009-2.327-1.114-2.547-2.543a2.422,2.422,0,0,1,2.086-2.882,8.819,8.819,0,0,1,2.815-.027c2.024.187,4.042.655,6.061.65,4.465-.01,6.862-1.913,7.918-6.26a23.066,23.066,0,0,0,.543-5.33c.017-5.426-1.517-7.478-6.714-8.6" transform="translate(-280.76 -1.222)" fill="#fff" stroke="rgba(0,0,0,0)" stroke-miterlimit="10" stroke-width="1"/>
      </g>
    </g>
    <text id="a_Platform_for_DAOs" data-name="a Platform for DAOs" transform="translate(434 134)" fill="#fff" font-size="20" font-family="Poppins-Regular, Poppins"><tspan x="-194.9" y="0">a Platform for DAOs</tspan></text>
  </g>
</svg>
